<svg width="673" height="591" viewBox="0 0 673 591" fill="none" xmlns="http://www.w3.org/2000/svg">
<path d="M8.17023 101.125C208.22 67.7747 592.385 26.5304 662.033 19.1553C667.934 18.5305 673 23.1643 673 29.0977V416.414C673 421.353 669.395 425.552 664.513 426.299L11.5128 526.238C5.45764 527.165 0 522.479 0 516.353V110.944C0 106.067 3.36035 101.927 8.17023 101.125Z" fill="url(#paint0_linear)"/>
<path d="M134.5 11C134.5 5.75331 138.753 1.5 144 1.5H524C529.247 1.5 533.5 5.75329 533.5 11V446.75L134.5 507.418V11Z" fill="#F7F7FD" stroke="#DDD9EE"/>
<g clip-path="url(#clip0)">
<path d="M135 12C135 6.47715 139.477 2 145 2H523C528.523 2 533 6.47715 533 12V125H135V12Z" fill="white"/>
<path d="M162.597 76H164.676L167.011 67.8352H167.102L169.432 76H171.511L174.795 64.3636H172.528L170.432 72.9205H170.33L168.085 64.3636H166.023L163.784 72.9148H163.676L161.58 64.3636H159.312L162.597 76ZM178.543 70.8864C178.543 69.625 179.327 68.8977 180.429 68.8977C181.509 68.8977 182.145 69.5852 182.145 70.7614V76H184.202V70.4432C184.202 68.3352 183.009 67.1591 181.196 67.1591C179.856 67.1591 179.003 67.767 178.6 68.7557H178.498V64.3636H176.486V76H178.543V70.8864ZM189.13 76.1761C190.499 76.1761 191.318 75.5341 191.693 74.8011H191.761V76H193.738V70.1591C193.738 67.8523 191.857 67.1591 190.193 67.1591C188.357 67.1591 186.948 67.9773 186.494 69.5682L188.414 69.8409C188.619 69.2443 189.198 68.733 190.204 68.733C191.158 68.733 191.681 69.2216 191.681 70.0795V70.1136C191.681 70.7045 191.062 70.733 189.522 70.8977C187.829 71.0795 186.21 71.5852 186.21 73.5511C186.21 75.267 187.465 76.1761 189.13 76.1761ZM189.664 74.6648C188.806 74.6648 188.193 74.2727 188.193 73.517C188.193 72.7273 188.88 72.3977 189.801 72.267C190.34 72.1932 191.42 72.0568 191.687 71.8409V72.8693C191.687 73.8409 190.903 74.6648 189.664 74.6648ZM200.484 67.2727H198.763V65.1818H196.706V67.2727H195.467V68.8636H196.706V73.7159C196.694 75.358 197.888 76.1648 199.433 76.1193C200.018 76.1023 200.422 75.9886 200.643 75.9148L200.297 74.3068C200.183 74.3352 199.95 74.3864 199.694 74.3864C199.177 74.3864 198.763 74.2045 198.763 73.375V68.8636H200.484V67.2727ZM208.614 76H210.762L212.398 70.1023H212.518L214.154 76H216.296L218.768 67.2727H216.665L215.154 73.375H215.069L213.501 67.2727H211.427L209.859 73.4091H209.779L208.245 67.2727H206.148L208.614 76ZM223.035 76.1761C224.404 76.1761 225.223 75.5341 225.598 74.8011H225.666V76H227.643V70.1591C227.643 67.8523 225.762 67.1591 224.098 67.1591C222.262 67.1591 220.853 67.9773 220.399 69.5682L222.319 69.8409C222.524 69.2443 223.103 68.733 224.109 68.733C225.063 68.733 225.586 69.2216 225.586 70.0795V70.1136C225.586 70.7045 224.967 70.733 223.427 70.8977C221.734 71.0795 220.115 71.5852 220.115 73.5511C220.115 75.267 221.37 76.1761 223.035 76.1761ZM223.569 74.6648C222.711 74.6648 222.098 74.2727 222.098 73.517C222.098 72.7273 222.785 72.3977 223.706 72.267C224.245 72.1932 225.325 72.0568 225.592 71.8409V72.8693C225.592 73.8409 224.808 74.6648 223.569 74.6648ZM236.929 69.5795C236.645 68.1023 235.463 67.1591 233.418 67.1591C231.315 67.1591 229.883 68.1932 229.889 69.8068C229.883 71.0795 230.668 71.9205 232.344 72.267L233.832 72.5795C234.633 72.7557 235.008 73.0795 235.008 73.5739C235.008 74.1705 234.361 74.6193 233.383 74.6193C232.44 74.6193 231.827 74.2102 231.651 73.4261L229.645 73.6193C229.901 75.2216 231.247 76.1705 233.389 76.1705C235.571 76.1705 237.111 75.0398 237.116 73.3864C237.111 72.142 236.31 71.3807 234.662 71.0227L233.173 70.7045C232.287 70.5057 231.935 70.1989 231.94 69.6932C231.935 69.1023 232.588 68.6932 233.446 68.6932C234.395 68.6932 234.895 69.2102 235.054 69.7841L236.929 69.5795ZM244.7 79.2727C246.302 79.2727 247.228 78.4489 247.722 77.0568L251.228 67.2841L249.029 67.2727L247.012 73.8636H246.921L244.91 67.2727H242.728L245.893 76.1818L245.717 76.6534C245.336 77.6477 244.734 77.7159 243.836 77.4545L243.359 79.0568C243.637 79.1705 244.137 79.2727 244.7 79.2727ZM256.486 76.1705C259.042 76.1705 260.667 74.3693 260.667 71.6705C260.667 68.9659 259.042 67.1591 256.486 67.1591C253.929 67.1591 252.304 68.9659 252.304 71.6705C252.304 74.3693 253.929 76.1705 256.486 76.1705ZM256.497 74.5227C255.082 74.5227 254.389 73.2614 254.389 71.6648C254.389 70.0682 255.082 68.7898 256.497 68.7898C257.889 68.7898 258.582 70.0682 258.582 71.6648C258.582 73.2614 257.889 74.5227 256.497 74.5227ZM268.296 72.3295C268.296 73.6591 267.347 74.3182 266.438 74.3182C265.449 74.3182 264.79 73.6193 264.79 72.5114V67.2727H262.733V72.8295C262.733 74.9261 263.926 76.1136 265.642 76.1136C266.949 76.1136 267.869 75.4261 268.267 74.4489H268.358V76H270.352V67.2727H268.296V72.3295ZM272.787 76H274.844V70.8693C274.844 69.7614 275.679 68.9773 276.81 68.9773C277.157 68.9773 277.589 69.0398 277.765 69.0966V67.2045C277.577 67.1705 277.253 67.1477 277.026 67.1477C276.026 67.1477 275.191 67.7159 274.873 68.7273H274.782V67.2727H272.787V76ZM283.831 76H285.854V74.625H285.973C286.297 75.2614 286.973 76.1534 288.473 76.1534C290.53 76.1534 292.069 74.5227 292.069 71.6477C292.069 68.7386 290.484 67.1591 288.467 67.1591C286.927 67.1591 286.285 68.0852 285.973 68.7159H285.888V64.3636H283.831V76ZM285.848 71.6364C285.848 69.9432 286.575 68.8466 287.899 68.8466C289.268 68.8466 289.973 70.0114 289.973 71.6364C289.973 73.2727 289.257 74.4659 287.899 74.4659C286.587 74.4659 285.848 73.3295 285.848 71.6364ZM294.138 76H296.195V67.2727H294.138V76ZM295.172 66.0341C295.826 66.0341 296.36 65.5341 296.36 64.9205C296.36 64.3011 295.826 63.8011 295.172 63.8011C294.513 63.8011 293.979 64.3011 293.979 64.9205C293.979 65.5341 294.513 66.0341 295.172 66.0341ZM302.425 79.4545C304.783 79.4545 306.522 78.375 306.522 76.142V67.2727H304.494V68.7159H304.38C304.067 68.0852 303.414 67.1591 301.874 67.1591C299.857 67.1591 298.272 68.7386 298.272 71.608C298.272 74.4545 299.857 75.875 301.869 75.875C303.363 75.875 304.062 75.0739 304.38 74.4318H304.482V76.0852C304.482 77.3693 303.63 77.8977 302.459 77.8977C301.221 77.8977 300.675 77.3125 300.425 76.8011L298.573 77.25C298.948 78.4716 300.204 79.4545 302.425 79.4545ZM302.442 74.2614C301.084 74.2614 300.369 73.2045 300.369 71.5966C300.369 70.0114 301.073 68.8466 302.442 68.8466C303.766 68.8466 304.494 69.9432 304.494 71.5966C304.494 73.2614 303.755 74.2614 302.442 74.2614ZM312.745 79.4545C315.103 79.4545 316.842 78.375 316.842 76.142V67.2727H314.814V68.7159H314.7C314.387 68.0852 313.734 67.1591 312.194 67.1591C310.177 67.1591 308.592 68.7386 308.592 71.608C308.592 74.4545 310.177 75.875 312.189 75.875C313.683 75.875 314.382 75.0739 314.7 74.4318H314.802V76.0852C314.802 77.3693 313.95 77.8977 312.779 77.8977C311.541 77.8977 310.995 77.3125 310.745 76.8011L308.893 77.25C309.268 78.4716 310.524 79.4545 312.745 79.4545ZM312.762 74.2614C311.404 74.2614 310.689 73.2045 310.689 71.5966C310.689 70.0114 311.393 68.8466 312.762 68.8466C314.086 68.8466 314.814 69.9432 314.814 71.5966C314.814 73.2614 314.075 74.2614 312.762 74.2614ZM323.134 76.1705C325.168 76.1705 326.565 75.1761 326.929 73.6591L325.009 73.4432C324.73 74.1818 324.048 74.5682 323.162 74.5682C321.832 74.5682 320.952 73.6932 320.935 72.1989H327.014V71.5682C327.014 68.5057 325.173 67.1591 323.026 67.1591C320.526 67.1591 318.895 68.9943 318.895 71.6875C318.895 74.4261 320.503 76.1705 323.134 76.1705ZM320.94 70.8125C321.003 69.6989 321.827 68.7614 323.054 68.7614C324.236 68.7614 325.031 69.625 325.043 70.8125H320.94ZM335.972 69.5795C335.688 68.1023 334.506 67.1591 332.461 67.1591C330.358 67.1591 328.927 68.1932 328.932 69.8068C328.927 71.0795 329.711 71.9205 331.387 72.267L332.875 72.5795C333.677 72.7557 334.052 73.0795 334.052 73.5739C334.052 74.1705 333.404 74.6193 332.427 74.6193C331.483 74.6193 330.87 74.2102 330.694 73.4261L328.688 73.6193C328.944 75.2216 330.29 76.1705 332.432 76.1705C334.614 76.1705 336.154 75.0398 336.16 73.3864C336.154 72.142 335.353 71.3807 333.705 71.0227L332.216 70.7045C331.33 70.5057 330.978 70.1989 330.983 69.6932C330.978 69.1023 331.631 68.6932 332.489 68.6932C333.438 68.6932 333.938 69.2102 334.097 69.7841L335.972 69.5795ZM342.534 67.2727H340.812V65.1818H338.755V67.2727H337.516V68.8636H338.755V73.7159C338.744 75.358 339.937 76.1648 341.482 76.1193C342.068 76.1023 342.471 75.9886 342.693 75.9148L342.346 74.3068C342.232 74.3352 341.999 74.3864 341.744 74.3864C341.227 74.3864 340.812 74.2045 340.812 73.375V68.8636H342.534V67.2727ZM353.283 67.2727H351.47V66.5852C351.47 65.9034 351.754 65.5227 352.522 65.5227C352.845 65.5227 353.118 65.5966 353.289 65.6477L353.703 64.0568C353.436 63.9659 352.851 63.8182 352.141 63.8182C350.624 63.8182 349.414 64.6875 349.414 66.4489V67.2727H348.124V68.8636H349.414V76H351.47V68.8636H353.283V67.2727ZM357.428 76.1761C358.798 76.1761 359.616 75.5341 359.991 74.8011H360.059V76H362.036V70.1591C362.036 67.8523 360.155 67.1591 358.491 67.1591C356.655 67.1591 355.246 67.9773 354.792 69.5682L356.712 69.8409C356.917 69.2443 357.496 68.733 358.502 68.733C359.457 68.733 359.979 69.2216 359.979 70.0795V70.1136C359.979 70.7045 359.36 70.733 357.82 70.8977C356.127 71.0795 354.508 71.5852 354.508 73.5511C354.508 75.267 355.763 76.1761 357.428 76.1761ZM357.962 74.6648C357.104 74.6648 356.491 74.2727 356.491 73.517C356.491 72.7273 357.178 72.3977 358.099 72.267C358.638 72.1932 359.718 72.0568 359.985 71.8409V72.8693C359.985 73.8409 359.201 74.6648 357.962 74.6648ZM364.424 76H366.481V67.2727H364.424V76ZM365.458 66.0341C366.112 66.0341 366.646 65.5341 366.646 64.9205C366.646 64.3011 366.112 63.8011 365.458 63.8011C364.799 63.8011 364.265 64.3011 364.265 64.9205C364.265 65.5341 364.799 66.0341 365.458 66.0341ZM370.973 64.3636H368.916V76H370.973V64.3636ZM378.971 72.3295C378.971 73.6591 378.022 74.3182 377.113 74.3182C376.124 74.3182 375.465 73.6193 375.465 72.5114V67.2727H373.408V72.8295C373.408 74.9261 374.601 76.1136 376.317 76.1136C377.624 76.1136 378.544 75.4261 378.942 74.4489H379.033V76H381.027V67.2727H378.971V72.3295ZM383.462 76H385.519V70.8693C385.519 69.7614 386.354 68.9773 387.485 68.9773C387.832 68.9773 388.264 69.0398 388.44 69.0966V67.2045C388.252 67.1705 387.928 67.1477 387.701 67.1477C386.701 67.1477 385.866 67.7159 385.548 68.7273H385.457V67.2727H383.462V76ZM393.63 76.1705C395.665 76.1705 397.062 75.1761 397.426 73.6591L395.505 73.4432C395.227 74.1818 394.545 74.5682 393.659 74.5682C392.329 74.5682 391.449 73.6932 391.432 72.1989H397.511V71.5682C397.511 68.5057 395.67 67.1591 393.523 67.1591C391.023 67.1591 389.392 68.9943 389.392 71.6875C389.392 74.4261 391 76.1705 393.63 76.1705ZM391.437 70.8125C391.5 69.6989 392.324 68.7614 393.551 68.7614C394.733 68.7614 395.528 69.625 395.54 70.8125H391.437ZM401.986 74.4091H400.168L400.128 75.0455C400.031 76.5852 399.628 78.1534 399.463 78.8409H400.85C401.122 78.125 401.753 76.4659 401.912 75.0341L401.986 74.4091ZM411.051 76.1761C412.42 76.1761 413.238 75.5341 413.613 74.8011H413.681V76H415.659V70.1591C415.659 67.8523 413.778 67.1591 412.113 67.1591C410.278 67.1591 408.869 67.9773 408.414 69.5682L410.335 69.8409C410.539 69.2443 411.119 68.733 412.125 68.733C413.079 68.733 413.602 69.2216 413.602 70.0795V70.1136C413.602 70.7045 412.982 70.733 411.443 70.8977C409.75 71.0795 408.13 71.5852 408.13 73.5511C408.13 75.267 409.386 76.1761 411.051 76.1761ZM411.585 74.6648C410.727 74.6648 410.113 74.2727 410.113 73.517C410.113 72.7273 410.801 72.3977 411.721 72.267C412.261 72.1932 413.34 72.0568 413.607 71.8409V72.8693C413.607 73.8409 412.823 74.6648 411.585 74.6648ZM420.104 70.8864C420.104 69.625 420.865 68.8977 421.95 68.8977C423.013 68.8977 423.649 69.5966 423.649 70.7614V76H425.706V70.4432C425.712 68.3523 424.518 67.1591 422.717 67.1591C421.41 67.1591 420.513 67.7841 420.115 68.7557H420.013V67.2727H418.047V76H420.104V70.8864ZM431.355 76.1534C432.855 76.1534 433.532 75.2614 433.855 74.625H433.98V76H436.003V64.3636H433.941V68.7159H433.855C433.543 68.0852 432.901 67.1591 431.361 67.1591C429.344 67.1591 427.759 68.7386 427.759 71.6477C427.759 74.5227 429.299 76.1534 431.355 76.1534ZM431.929 74.4659C430.571 74.4659 429.855 73.2727 429.855 71.6364C429.855 70.0114 430.56 68.8466 431.929 68.8466C433.253 68.8466 433.98 69.9432 433.98 71.6364C433.98 73.3295 433.242 74.4659 431.929 74.4659ZM162.114 92.8864C162.114 91.625 162.898 90.8977 164 90.8977C165.08 90.8977 165.716 91.5852 165.716 92.7614V98H167.773V92.4432C167.773 90.3352 166.58 89.1591 164.767 89.1591C163.426 89.1591 162.574 89.767 162.17 90.7557H162.068V86.3636H160.057V98H162.114V92.8864ZM173.996 98.1705C176.553 98.1705 178.178 96.3693 178.178 93.6705C178.178 90.9659 176.553 89.1591 173.996 89.1591C171.439 89.1591 169.814 90.9659 169.814 93.6705C169.814 96.3693 171.439 98.1705 173.996 98.1705ZM174.007 96.5227C172.593 96.5227 171.9 95.2614 171.9 93.6648C171.9 92.0682 172.593 90.7898 174.007 90.7898C175.4 90.7898 176.093 92.0682 176.093 93.6648C176.093 95.2614 175.4 96.5227 174.007 96.5227ZM181.81 98H183.958L185.595 92.1023H185.714L187.35 98H189.492L191.964 89.2727H189.862L188.35 95.375H188.265L186.697 89.2727H184.623L183.055 95.4091H182.975L181.441 89.2727H179.345L181.81 98ZM201.247 98.1534C202.747 98.1534 203.423 97.2614 203.747 96.625H203.872V98H205.895V86.3636H203.833V90.7159H203.747C203.435 90.0852 202.793 89.1591 201.253 89.1591C199.236 89.1591 197.651 90.7386 197.651 93.6477C197.651 96.5227 199.191 98.1534 201.247 98.1534ZM201.821 96.4659C200.463 96.4659 199.747 95.2727 199.747 93.6364C199.747 92.0114 200.452 90.8466 201.821 90.8466C203.145 90.8466 203.872 91.9432 203.872 93.6364C203.872 95.3295 203.134 96.4659 201.821 96.4659ZM208.407 98H210.464V89.2727H208.407V98ZM209.441 88.0341C210.094 88.0341 210.628 87.5341 210.628 86.9205C210.628 86.3011 210.094 85.8011 209.441 85.8011C208.782 85.8011 208.248 86.3011 208.248 86.9205C208.248 87.5341 208.782 88.0341 209.441 88.0341ZM216.137 98.1534C217.637 98.1534 218.313 97.2614 218.637 96.625H218.762V98H220.785V86.3636H218.723V90.7159H218.637C218.325 90.0852 217.683 89.1591 216.143 89.1591C214.126 89.1591 212.541 90.7386 212.541 93.6477C212.541 96.5227 214.081 98.1534 216.137 98.1534ZM216.711 96.4659C215.353 96.4659 214.637 95.2727 214.637 93.6364C214.637 92.0114 215.342 90.8466 216.711 90.8466C218.035 90.8466 218.762 91.9432 218.762 93.6364C218.762 95.3295 218.024 96.4659 216.711 96.4659ZM228.864 101.273C230.466 101.273 231.392 100.449 231.887 99.0568L235.392 89.2841L233.194 89.2727L231.176 95.8636H231.086L229.074 89.2727H226.892L230.057 98.1818L229.881 98.6534C229.5 99.6477 228.898 99.7159 228 99.4545L227.523 101.057C227.801 101.17 228.301 101.273 228.864 101.273ZM240.65 98.1705C243.207 98.1705 244.832 96.3693 244.832 93.6705C244.832 90.9659 243.207 89.1591 240.65 89.1591C238.093 89.1591 236.468 90.9659 236.468 93.6705C236.468 96.3693 238.093 98.1705 240.65 98.1705ZM240.661 96.5227C239.246 96.5227 238.553 95.2614 238.553 93.6648C238.553 92.0682 239.246 90.7898 240.661 90.7898C242.053 90.7898 242.746 92.0682 242.746 93.6648C242.746 95.2614 242.053 96.5227 240.661 96.5227ZM252.46 94.3295C252.46 95.6591 251.511 96.3182 250.602 96.3182C249.613 96.3182 248.954 95.6193 248.954 94.5114V89.2727H246.897V94.8295C246.897 96.9261 248.091 98.1136 249.807 98.1136C251.113 98.1136 252.034 97.4261 252.432 96.4489H252.522V98H254.517V89.2727H252.46V94.3295ZM263.752 98.1761C265.121 98.1761 265.939 97.5341 266.314 96.8011H266.383V98H268.36V92.1591C268.36 89.8523 266.479 89.1591 264.814 89.1591C262.979 89.1591 261.57 89.9773 261.116 91.5682L263.036 91.8409C263.241 91.2443 263.82 90.733 264.826 90.733C265.78 90.733 266.303 91.2216 266.303 92.0795V92.1136C266.303 92.7045 265.684 92.733 264.144 92.8977C262.451 93.0795 260.831 93.5852 260.831 95.5511C260.831 97.267 262.087 98.1761 263.752 98.1761ZM264.286 96.6648C263.428 96.6648 262.814 96.2727 262.814 95.517C262.814 94.7273 263.502 94.3977 264.422 94.267C264.962 94.1932 266.042 94.0568 266.309 93.8409V94.8693C266.309 95.8409 265.525 96.6648 264.286 96.6648ZM273.987 98.1534C275.487 98.1534 276.163 97.2614 276.487 96.625H276.612V98H278.634V86.3636H276.572V90.7159H276.487C276.174 90.0852 275.532 89.1591 273.992 89.1591C271.975 89.1591 270.39 90.7386 270.39 93.6477C270.39 96.5227 271.93 98.1534 273.987 98.1534ZM274.561 96.4659C273.203 96.4659 272.487 95.2727 272.487 93.6364C272.487 92.0114 273.191 90.8466 274.561 90.8466C275.884 90.8466 276.612 91.9432 276.612 93.6364C276.612 95.3295 275.873 96.4659 274.561 96.4659ZM283.658 98.1761C285.027 98.1761 285.845 97.5341 286.22 96.8011H286.288V98H288.266V92.1591C288.266 89.8523 286.385 89.1591 284.72 89.1591C282.885 89.1591 281.476 89.9773 281.021 91.5682L282.942 91.8409C283.146 91.2443 283.726 90.733 284.731 90.733C285.686 90.733 286.209 91.2216 286.209 92.0795V92.1136C286.209 92.7045 285.589 92.733 284.05 92.8977C282.356 93.0795 280.737 93.5852 280.737 95.5511C280.737 97.267 281.993 98.1761 283.658 98.1761ZM284.192 96.6648C283.334 96.6648 282.72 96.2727 282.72 95.517C282.72 94.7273 283.408 94.3977 284.328 94.267C284.868 94.1932 285.947 94.0568 286.214 93.8409V94.8693C286.214 95.8409 285.43 96.6648 284.192 96.6648ZM290.654 101.273H292.711V96.625H292.796C293.12 97.2614 293.796 98.1534 295.296 98.1534C297.353 98.1534 298.892 96.5227 298.892 93.6477C298.892 90.7386 297.307 89.1591 295.29 89.1591C293.75 89.1591 293.108 90.0852 292.796 90.7159H292.676V89.2727H290.654V101.273ZM292.671 93.6364C292.671 91.9432 293.398 90.8466 294.722 90.8466C296.091 90.8466 296.796 92.0114 296.796 93.6364C296.796 95.2727 296.08 96.4659 294.722 96.4659C293.409 96.4659 292.671 95.3295 292.671 93.6364ZM305.332 89.2727H303.61V87.1818H301.553V89.2727H300.315V90.8636H301.553V95.7159C301.542 97.358 302.735 98.1648 304.281 98.1193C304.866 98.1023 305.269 97.9886 305.491 97.9148L305.144 96.3068C305.031 96.3352 304.798 96.3864 304.542 96.3864C304.025 96.3864 303.61 96.2045 303.61 95.375V90.8636H305.332V89.2727ZM314.172 98.1761C315.541 98.1761 316.359 97.5341 316.734 96.8011H316.803V98H318.78V92.1591C318.78 89.8523 316.899 89.1591 315.234 89.1591C313.399 89.1591 311.99 89.9773 311.536 91.5682L313.456 91.8409C313.661 91.2443 314.24 90.733 315.246 90.733C316.2 90.733 316.723 91.2216 316.723 92.0795V92.1136C316.723 92.7045 316.104 92.733 314.564 92.8977C312.871 93.0795 311.251 93.5852 311.251 95.5511C311.251 97.267 312.507 98.1761 314.172 98.1761ZM314.706 96.6648C313.848 96.6648 313.234 96.2727 313.234 95.517C313.234 94.7273 313.922 94.3977 314.842 94.267C315.382 94.1932 316.462 94.0568 316.729 93.8409V94.8693C316.729 95.8409 315.945 96.6648 314.706 96.6648ZM325.589 89.2727H323.776V88.5852C323.776 87.9034 324.06 87.5227 324.827 87.5227C325.151 87.5227 325.424 87.5966 325.594 87.6477L326.009 86.0568C325.742 85.9659 325.157 85.8182 324.446 85.8182C322.929 85.8182 321.719 86.6875 321.719 88.4489V89.2727H320.429V90.8636H321.719V98H323.776V90.8636H325.589V89.2727ZM331.877 89.2727H330.156V87.1818H328.099V89.2727H326.86V90.8636H328.099V95.7159C328.087 97.358 329.281 98.1648 330.826 98.1193C331.411 98.1023 331.815 97.9886 332.036 97.9148L331.69 96.3068C331.576 96.3352 331.343 96.3864 331.087 96.3864C330.57 96.3864 330.156 96.2045 330.156 95.375V90.8636H331.877V89.2727ZM337.687 98.1705C339.721 98.1705 341.119 97.1761 341.483 95.6591L339.562 95.4432C339.284 96.1818 338.602 96.5682 337.716 96.5682C336.386 96.5682 335.506 95.6932 335.488 94.1989H341.568V93.5682C341.568 90.5057 339.727 89.1591 337.579 89.1591C335.079 89.1591 333.449 90.9943 333.449 93.6875C333.449 96.4261 335.057 98.1705 337.687 98.1705ZM335.494 92.8125C335.557 91.6989 336.381 90.7614 337.608 90.7614C338.79 90.7614 339.585 91.625 339.596 92.8125H335.494ZM343.628 98H345.685V92.8693C345.685 91.7614 346.52 90.9773 347.651 90.9773C347.997 90.9773 348.429 91.0398 348.605 91.0966V89.2045C348.418 89.1705 348.094 89.1477 347.867 89.1477C346.867 89.1477 346.031 89.7159 345.713 90.7273H345.622V89.2727H343.628V98ZM352.234 98H354.381L356.018 92.1023H356.137L357.773 98H359.915L362.387 89.2727H360.285L358.773 95.375H358.688L357.12 89.2727H355.046L353.478 95.4091H353.398L351.864 89.2727H349.768L352.234 98ZM366.654 98.1761C368.024 98.1761 368.842 97.5341 369.217 96.8011H369.285V98H371.262V92.1591C371.262 89.8523 369.382 89.1591 367.717 89.1591C365.882 89.1591 364.473 89.9773 364.018 91.5682L365.939 91.8409C366.143 91.2443 366.723 90.733 367.728 90.733C368.683 90.733 369.206 91.2216 369.206 92.0795V92.1136C369.206 92.7045 368.586 92.733 367.046 92.8977C365.353 93.0795 363.734 93.5852 363.734 95.5511C363.734 97.267 364.99 98.1761 366.654 98.1761ZM367.189 96.6648C366.331 96.6648 365.717 96.2727 365.717 95.517C365.717 94.7273 366.404 94.3977 367.325 94.267C367.865 94.1932 368.944 94.0568 369.211 93.8409V94.8693C369.211 95.8409 368.427 96.6648 367.189 96.6648ZM373.651 98H375.707V92.8693C375.707 91.7614 376.543 90.9773 377.673 90.9773C378.02 90.9773 378.452 91.0398 378.628 91.0966V89.2045C378.44 89.1705 378.116 89.1477 377.889 89.1477C376.889 89.1477 376.054 89.7159 375.736 90.7273H375.645V89.2727H373.651V98ZM383.194 98.1534C384.694 98.1534 385.37 97.2614 385.694 96.625H385.819V98H387.841V86.3636H385.779V90.7159H385.694C385.381 90.0852 384.739 89.1591 383.199 89.1591C381.182 89.1591 379.597 90.7386 379.597 93.6477C379.597 96.5227 381.137 98.1534 383.194 98.1534ZM383.767 96.4659C382.409 96.4659 381.694 95.2727 381.694 93.6364C381.694 92.0114 382.398 90.8466 383.767 90.8466C385.091 90.8466 385.819 91.9432 385.819 93.6364C385.819 95.3295 385.08 96.4659 383.767 96.4659ZM397.251 91.5795C396.967 90.1023 395.785 89.1591 393.739 89.1591C391.637 89.1591 390.205 90.1932 390.211 91.8068C390.205 93.0795 390.989 93.9205 392.666 94.267L394.154 94.5795C394.955 94.7557 395.33 95.0795 395.33 95.5739C395.33 96.1705 394.683 96.6193 393.705 96.6193C392.762 96.6193 392.149 96.2102 391.972 95.4261L389.967 95.6193C390.222 97.2216 391.569 98.1705 393.711 98.1705C395.893 98.1705 397.433 97.0398 397.438 95.3864C397.433 94.142 396.631 93.3807 394.984 93.0227L393.495 92.7045C392.609 92.5057 392.256 92.1989 392.262 91.6932C392.256 91.1023 392.91 90.6932 393.768 90.6932C394.717 90.6932 395.217 91.2102 395.376 91.7841L397.251 91.5795ZM401.42 94.5795H403.312V94.4318C403.324 93.2273 403.716 92.6761 404.642 92.108C405.687 91.483 406.341 90.6307 406.341 89.3295C406.341 87.4091 404.846 86.2045 402.676 86.2045C400.687 86.2045 399.074 87.3068 399.017 89.4659H401.04C401.091 88.3977 401.863 87.8864 402.665 87.8864C403.534 87.8864 404.233 88.4659 404.233 89.358C404.233 90.1534 403.704 90.6989 403.017 91.1307C402.011 91.7557 401.432 92.3864 401.42 94.4318V94.5795ZM402.415 98.125C403.085 98.125 403.659 97.5682 403.665 96.875C403.659 96.1932 403.085 95.6364 402.415 95.6364C401.721 95.6364 401.159 96.1932 401.165 96.875C401.159 97.5682 401.721 98.125 402.415 98.125Z" fill="#242424"/>
<path d="M160.119 40H161.655V36.147H163.743C163.778 36.147 163.808 36.147 163.842 36.147L165.911 40H167.661L165.403 35.8786C166.651 35.4162 167.273 34.3771 167.273 33.0099C167.273 31.1357 166.109 29.8182 163.748 29.8182H160.119V40ZM161.655 34.8246V31.1357H163.584C165.1 31.1357 165.727 31.8565 165.727 33.0099C165.727 34.1584 165.1 34.8246 163.604 34.8246H161.655ZM172.918 40.1541C174.584 40.1541 175.762 39.3338 176.1 38.0909L174.693 37.8374C174.425 38.5582 173.778 38.9261 172.933 38.9261C171.66 38.9261 170.805 38.1009 170.766 36.6293H176.194V36.1023C176.194 33.343 174.544 32.2642 172.814 32.2642C170.686 32.2642 169.284 33.8849 169.284 36.2315C169.284 38.603 170.666 40.1541 172.918 40.1541ZM170.77 35.5156C170.83 34.4318 171.616 33.4922 172.824 33.4922C173.977 33.4922 174.733 34.3473 174.738 35.5156H170.77ZM181.76 40.1541C183.565 40.1541 184.733 39.0703 184.898 37.5838H183.451C183.262 38.4091 182.621 38.8963 181.77 38.8963C180.513 38.8963 179.702 37.8473 179.702 36.1818C179.702 34.5462 180.527 33.517 181.77 33.517C182.715 33.517 183.292 34.1136 183.451 34.8295H184.898C184.738 33.2884 183.481 32.2642 181.746 32.2642C179.593 32.2642 178.201 33.8849 178.201 36.2166C178.201 38.5185 179.543 40.1541 181.76 40.1541ZM190.404 40.1541C192.556 40.1541 193.963 38.5781 193.963 36.2166C193.963 33.8402 192.556 32.2642 190.404 32.2642C188.251 32.2642 186.844 33.8402 186.844 36.2166C186.844 38.5781 188.251 40.1541 190.404 40.1541ZM190.409 38.9062C189.002 38.9062 188.346 37.6783 188.346 36.2116C188.346 34.75 189.002 33.5071 190.409 33.5071C191.806 33.5071 192.462 34.75 192.462 36.2116C192.462 37.6783 191.806 38.9062 190.409 38.9062ZM196.323 40H197.809V35.3366C197.809 34.3374 198.58 33.6165 199.634 33.6165C199.942 33.6165 200.29 33.6712 200.409 33.706V32.2841C200.26 32.2642 199.967 32.2493 199.778 32.2493C198.883 32.2493 198.117 32.7564 197.839 33.5767H197.76V32.3636H196.323V40ZM204.981 40.1491C206.373 40.1491 206.92 39.299 207.188 38.8118H207.313V40H208.764V29.8182H207.278V33.6016H207.188C206.92 33.1293 206.413 32.2642 204.991 32.2642C203.146 32.2642 201.789 33.7209 201.789 36.1967C201.789 38.6676 203.127 40.1491 204.981 40.1491ZM205.309 38.8814C203.982 38.8814 203.291 37.7131 203.291 36.1818C203.291 34.6655 203.967 33.527 205.309 33.527C206.607 33.527 207.303 34.5859 207.303 36.1818C207.303 37.7876 206.592 38.8814 205.309 38.8814ZM215.325 29.8182L219.019 36.0028V40H220.55V36.0028L224.244 29.8182H222.499L219.839 34.4467H219.73L217.07 29.8182H215.325ZM228.248 40.1541C230.4 40.1541 231.807 38.5781 231.807 36.2166C231.807 33.8402 230.4 32.2642 228.248 32.2642C226.095 32.2642 224.688 33.8402 224.688 36.2166C224.688 38.5781 226.095 40.1541 228.248 40.1541ZM228.253 38.9062C226.846 38.9062 226.189 37.6783 226.189 36.2116C226.189 34.75 226.846 33.5071 228.253 33.5071C229.65 33.5071 230.306 34.75 230.306 36.2116C230.306 37.6783 229.65 38.9062 228.253 38.9062ZM239.004 36.8331C239.009 38.1307 238.044 38.7472 237.209 38.7472C236.289 38.7472 235.653 38.081 235.653 37.0419V32.3636H234.166V37.2209C234.166 39.1151 235.206 40.0994 236.672 40.0994C237.821 40.0994 238.601 39.4929 238.954 38.6776H239.034V40H240.495V32.3636H239.004V36.8331ZM243.193 40H244.679V35.3366C244.679 34.3374 245.45 33.6165 246.504 33.6165C246.812 33.6165 247.16 33.6712 247.279 33.706V32.2841C247.13 32.2642 246.837 32.2493 246.648 32.2493C245.753 32.2493 244.987 32.7564 244.709 33.5767H244.629V32.3636H243.193V40ZM254.65 40L255.585 37.3054H259.562L260.492 40H262.122L258.458 29.8182H256.684L253.019 40H254.65ZM256.032 36.0128L257.534 31.6676H257.613L259.115 36.0128H256.032ZM265.66 35.4659C265.66 34.2479 266.406 33.5518 267.44 33.5518C268.449 33.5518 269.061 34.2131 269.061 35.3217V40H270.547V35.1428C270.547 33.2536 269.508 32.2642 267.947 32.2642C266.799 32.2642 266.048 32.7962 265.695 33.6065H265.6V32.3636H264.174V40H265.66V35.4659ZM278.963 34.228C278.655 33.0398 277.725 32.2642 276.075 32.2642C274.349 32.2642 273.126 33.174 273.126 34.5263C273.126 35.6101 273.783 36.331 275.214 36.6491L276.507 36.9325C277.243 37.0966 277.586 37.4247 277.586 37.902C277.586 38.4936 276.954 38.956 275.98 38.956C275.09 38.956 274.518 38.5732 274.339 37.8224L272.903 38.0412C273.151 39.3935 274.275 40.1541 275.99 40.1541C277.834 40.1541 279.112 39.1747 279.112 37.7926C279.112 36.7138 278.426 36.0476 277.024 35.7244L275.811 35.446C274.971 35.2472 274.608 34.9638 274.613 34.4467C274.608 33.8601 275.244 33.4425 276.089 33.4425C277.014 33.4425 277.442 33.9545 277.616 34.4666L278.963 34.228ZM283.102 40H284.613L286.165 34.4865H286.279L287.83 40H289.346L291.589 32.3636H290.052L288.566 37.9467H288.491L287 32.3636H285.464L283.962 37.9716H283.888L282.391 32.3636H280.855L283.102 40ZM296.758 40.1541C298.424 40.1541 299.602 39.3338 299.94 38.0909L298.533 37.8374C298.264 38.5582 297.618 38.9261 296.773 38.9261C295.5 38.9261 294.645 38.1009 294.605 36.6293H300.034V36.1023C300.034 33.343 298.384 32.2642 296.654 32.2642C294.526 32.2642 293.124 33.8849 293.124 36.2315C293.124 38.603 294.506 40.1541 296.758 40.1541ZM294.61 35.5156C294.67 34.4318 295.456 33.4922 296.664 33.4922C297.817 33.4922 298.573 34.3473 298.578 35.5156H294.61ZM302.384 40H303.87V35.3366C303.87 34.3374 304.641 33.6165 305.695 33.6165C306.003 33.6165 306.351 33.6712 306.47 33.706V32.2841C306.321 32.2642 306.028 32.2493 305.839 32.2493C304.944 32.2493 304.178 32.7564 303.9 33.5767H303.82V32.3636H302.384V40Z" fill="#778397"/>
</g>
<path d="M191.25 231C191.25 226.72 194.72 223.25 199 223.25H244.333C248.614 223.25 252.083 226.72 252.083 231V307C252.083 311.28 248.614 314.75 244.333 314.75H199C194.72 314.75 191.25 311.28 191.25 307V231Z" fill="white" stroke="#DDD9EE" stroke-width="0.5"/>
<path d="M221.667 281.358C227.445 281.358 230.769 276.462 230.769 267.909C230.769 259.42 227.394 254.46 221.667 254.46C215.939 254.46 212.564 259.42 212.564 267.909C212.564 276.462 215.888 281.358 221.667 281.358ZM221.667 278.545C217.857 278.545 215.633 274.723 215.633 267.909C215.633 261.108 217.883 257.222 221.667 257.222C225.451 257.222 227.701 261.108 227.701 267.909C227.701 274.723 225.476 278.545 221.667 278.545Z" fill="#242424"/>
<path d="M262.805 231C262.805 226.72 266.274 223.25 270.555 223.25H315.888C320.168 223.25 323.638 226.72 323.638 231V307C323.638 311.28 320.168 314.75 315.888 314.75H270.555C266.274 314.75 262.805 311.28 262.805 307V231Z" fill="white" stroke="#DDD9EE" stroke-width="0.5"/>
<path d="M296.13 254.818H292.96L286.414 259.165V262.386L292.806 258.142H292.96V281H296.13V254.818Z" fill="#242424"/>
<path d="M344.582 231C344.582 226.72 348.052 223.25 352.332 223.25H397.665C401.946 223.25 405.415 226.72 405.415 231V307C405.415 311.28 401.946 314.75 397.665 314.75H352.332C348.052 314.75 344.582 311.28 344.582 307V231Z" fill="white" stroke="#DDD9EE" stroke-width="0.5"/>
<path d="M365.546 275.631H377.87V281H380.887V275.631H384.467V272.818H380.887V254.818H377.052L365.546 273.023V275.631ZM377.87 272.818H368.973V272.614L377.666 258.858H377.87V272.818Z" fill="#242424"/>
<path d="M334.116 275.17C335.17 275.17 336.033 274.308 336.033 273.253C336.033 272.198 335.17 271.335 334.116 271.335C333.061 271.335 332.198 272.198 332.198 273.253C332.198 274.308 333.061 275.17 334.116 275.17ZM334.116 263.026C335.17 263.026 336.033 262.163 336.033 261.108C336.033 260.053 335.17 259.19 334.116 259.19C333.061 259.19 332.198 260.053 332.198 261.108C332.198 262.163 333.061 263.026 334.116 263.026Z" fill="#242424"/>
<path d="M416.141 231C416.141 226.72 419.61 223.25 423.891 223.25H469.224C473.504 223.25 476.974 226.72 476.974 231V307C476.974 311.28 473.504 314.75 469.224 314.75H423.891C419.61 314.75 416.141 311.28 416.141 307V231Z" fill="white" stroke="#DDD9EE" stroke-width="0.5"/>
<path d="M446.653 281.358C451.728 281.358 455.5 278.175 455.5 273.892C455.5 270.568 453.531 268.152 450.233 267.602V267.398C452.879 266.592 454.528 264.419 454.528 261.466C454.528 257.759 451.601 254.46 446.755 254.46C442.23 254.46 438.471 257.247 438.318 261.364H441.386C441.501 258.756 443.981 257.222 446.704 257.222C449.594 257.222 451.46 258.973 451.46 261.619C451.46 264.381 449.299 266.17 446.193 266.17H444.096V268.983H446.193C450.169 268.983 452.38 271.003 452.38 273.892C452.38 276.666 449.964 278.545 446.602 278.545C443.572 278.545 441.169 276.986 440.977 274.455H437.755C437.947 278.571 441.578 281.358 446.653 281.358Z" fill="#242424"/>
<circle cx="280.5" cy="351" r="5.5" fill="#C61D1D"/>
<path d="M296.868 358H298.63V352.318H301.812C301.939 352.318 302.06 352.318 302.181 352.311L305.249 358H307.295L304.006 351.991C305.86 351.359 306.726 349.847 306.726 347.915C306.726 345.344 305.192 343.455 301.783 343.455H296.868V358ZM298.63 350.727V345.017H301.726C304.084 345.017 304.993 346.168 304.993 347.915C304.993 349.662 304.084 350.727 301.755 350.727H298.63ZM314.291 358.227C316.507 358.227 318.126 357.119 318.637 355.472L317.018 355.017C316.592 356.153 315.605 356.722 314.291 356.722C312.323 356.722 310.967 355.45 310.889 353.114H318.808V352.403C318.808 348.341 316.393 346.949 314.12 346.949C311.166 346.949 309.206 349.278 309.206 352.631C309.206 355.983 311.137 358.227 314.291 358.227ZM310.889 351.665C311.002 349.967 312.203 348.455 314.12 348.455C315.938 348.455 317.103 349.818 317.103 351.665H310.889ZM326.189 358.227C328.604 358.227 330.195 356.75 330.479 354.818H328.803C328.49 356.011 327.496 356.722 326.189 356.722C324.201 356.722 322.922 355.074 322.922 352.545C322.922 350.074 324.229 348.455 326.189 348.455C327.667 348.455 328.547 349.364 328.803 350.358H330.479C330.195 348.312 328.462 346.949 326.161 346.949C323.206 346.949 321.246 349.278 321.246 352.602C321.246 355.869 323.121 358.227 326.189 358.227ZM337.761 358.227C340.716 358.227 342.704 355.983 342.704 352.602C342.704 349.193 340.716 346.949 337.761 346.949C334.807 346.949 332.818 349.193 332.818 352.602C332.818 355.983 334.807 358.227 337.761 358.227ZM337.761 356.722C335.517 356.722 334.494 354.79 334.494 352.602C334.494 350.415 335.517 348.455 337.761 348.455C340.006 348.455 341.028 350.415 341.028 352.602C341.028 354.79 340.006 356.722 337.761 356.722ZM345.663 358H347.339V351.097C347.339 349.619 348.504 348.54 350.095 348.54C350.542 348.54 351.004 348.625 351.118 348.653V346.949C350.926 346.935 350.485 346.92 350.237 346.92C348.93 346.92 347.794 347.659 347.396 348.739H347.282V347.091H345.663V358ZM357.292 358.227C359.394 358.227 360.104 356.92 360.474 356.324H360.672V358H362.292V343.455H360.616V348.824H360.474C360.104 348.256 359.451 346.949 357.32 346.949C354.564 346.949 352.661 349.136 352.661 352.574C352.661 356.04 354.564 358.227 357.292 358.227ZM357.519 356.722C355.417 356.722 354.337 354.875 354.337 352.545C354.337 350.244 355.388 348.455 357.519 348.455C359.564 348.455 360.644 350.102 360.644 352.545C360.644 355.017 359.536 356.722 357.519 356.722ZM365.994 358H367.67V347.091H365.994V358ZM366.847 345.273C367.5 345.273 368.04 344.761 368.04 344.136C368.04 343.511 367.5 343 366.847 343C366.193 343 365.653 343.511 365.653 344.136C365.653 344.761 366.193 345.273 366.847 345.273ZM372.816 351.438C372.816 349.534 373.995 348.455 375.601 348.455C377.156 348.455 378.101 349.47 378.101 351.182V358H379.777V351.068C379.777 348.284 378.292 346.949 376.084 346.949C374.436 346.949 373.413 347.688 372.902 348.795H372.76V347.091H371.14V358H372.816V351.438ZM387.643 362.318C390.257 362.318 392.359 361.125 392.359 358.312V347.091H390.74V348.824H390.569C390.2 348.256 389.518 346.949 387.387 346.949C384.632 346.949 382.728 349.136 382.728 352.489C382.728 355.898 384.717 357.83 387.359 357.83C389.49 357.83 390.171 356.58 390.541 355.983H390.683V358.199C390.683 360.017 389.404 360.841 387.643 360.841C385.661 360.841 384.965 359.797 384.518 359.193L383.183 360.131C383.865 361.274 385.207 362.318 387.643 362.318ZM387.586 356.324C385.484 356.324 384.404 354.733 384.404 352.46C384.404 350.244 385.455 348.455 387.586 348.455C389.632 348.455 390.711 350.102 390.711 352.46C390.711 354.875 389.603 356.324 387.586 356.324Z" fill="black"/>
<g opacity="0.5" filter="url(#filter0_d)">
<circle cx="334" cy="480" r="87" fill="#F7F7FD"/>
<circle cx="334" cy="480" r="85" stroke="#DDD9EE" stroke-opacity="0.3" stroke-width="4"/>
</g>
<g filter="url(#filter1_d)">
<rect x="279" y="425" width="110" height="110" rx="55" fill="white"/>
<path d="M311.421 477.929C311.421 476.861 312.284 475.995 313.348 475.995C314.413 475.995 315.276 476.861 315.276 477.929C315.276 488.282 323.676 496.706 333.999 496.706C344.323 496.706 352.722 488.282 352.722 477.929C352.722 476.861 353.585 475.995 354.65 475.995C355.715 475.995 356.578 476.861 356.578 477.929C356.578 489.763 347.478 499.505 335.927 500.49V509.132H340.194C341.259 509.132 342.122 509.998 342.122 511.066C342.122 512.134 341.259 512.999 340.194 512.999H327.804C326.739 512.999 325.876 512.134 325.876 511.066C325.876 509.998 326.739 509.132 327.804 509.132H332.071V500.49C320.52 499.505 311.421 489.763 311.421 477.929Z" fill="#EAAF23"/>
<path d="M342.191 457.218C342.191 452.683 338.511 449 334.003 449C329.495 449 325.815 452.683 325.815 457.218V477.929C325.815 482.464 329.495 486.147 334.003 486.147C338.511 486.147 342.191 482.464 342.191 477.929V457.218Z" stroke="#EAAF23" stroke-width="4"/>
</g>
<defs>
<filter id="filter0_d" x="227" y="377" width="214" height="214" filterUnits="userSpaceOnUse" color-interpolation-filters="sRGB">
<feFlood flood-opacity="0" result="BackgroundImageFix"/>
<feColorMatrix in="SourceAlpha" type="matrix" values="0 0 0 0 0 0 0 0 0 0 0 0 0 0 0 0 0 0 127 0"/>
<feOffset dy="4"/>
<feGaussianBlur stdDeviation="10"/>
<feColorMatrix type="matrix" values="0 0 0 0 0 0 0 0 0 0 0 0 0 0 0 0 0 0 0.07 0"/>
<feBlend mode="normal" in2="BackgroundImageFix" result="effect1_dropShadow"/>
<feBlend mode="normal" in="SourceGraphic" in2="effect1_dropShadow" result="shape"/>
</filter>
<filter id="filter1_d" x="259" y="407" width="150" height="153.999" filterUnits="userSpaceOnUse" color-interpolation-filters="sRGB">
<feFlood flood-opacity="0" result="BackgroundImageFix"/>
<feColorMatrix in="SourceAlpha" type="matrix" values="0 0 0 0 0 0 0 0 0 0 0 0 0 0 0 0 0 0 127 0"/>
<feOffset dy="4"/>
<feGaussianBlur stdDeviation="10"/>
<feColorMatrix type="matrix" values="0 0 0 0 0 0 0 0 0 0 0 0 0 0 0 0 0 0 0.07 0"/>
<feBlend mode="normal" in2="BackgroundImageFix" result="effect1_dropShadow"/>
<feBlend mode="normal" in="SourceGraphic" in2="effect1_dropShadow" result="shape"/>
</filter>
<linearGradient id="paint0_linear" x1="336.5" y1="18" x2="336.5" y2="528" gradientUnits="userSpaceOnUse">
<stop stop-color="#EAAF23"/>
<stop offset="1" stop-color="#EA8223"/>
</linearGradient>
<clipPath id="clip0">
<path d="M135 12C135 6.47715 139.477 2 145 2H523C528.523 2 533 6.47715 533 12V125H135V12Z" fill="white"/>
</clipPath>
</defs>
</svg>
