<svg width="1640" height="40" viewBox="-8 0 1640 40" fill="none" xmlns="http://www.w3.org/2000/svg">
<g opacity="0.5">
<path fill-rule="evenodd" clip-rule="evenodd" d="M14.1678 14.7872H26.9101C26.9101 14.7861 27.1388 15.6965 27.1388 17.2724C27.1388 24.7411 21.7416 29.7914 14.3692 29.7914C5.98671 29.7914 0.292969 22.976 0.292969 15.9865C0.292969 8.85377 6.34565 2.25065 14.1711 2.25174C20.3146 2.25174 23.684 6.00197 23.684 6.00197L21.0588 8.72026C21.0588 8.72026 18.555 6.01073 14.3046 6.01073C8.79583 6.01073 4.40214 10.3803 4.40214 16.0544C4.40214 21.8784 9.01141 26.0346 14.2926 26.0346C18.4204 26.0346 22.7944 23.7934 23.2365 18.5363H14.1678V14.7872ZM28.7999 20.8508C28.7999 16.1245 32.5151 12.0722 37.6989 12.0722C41.9602 12.0722 46.5815 15.0914 46.5804 20.9537C46.5804 26.0685 42.608 29.775 37.7591 29.775C32.4035 29.775 28.7999 25.6472 28.7999 20.8508ZM42.7153 20.9307C42.7153 17.6094 40.299 15.5488 37.7504 15.5488C34.8865 15.5488 32.6847 17.8393 32.6847 20.9044C32.6847 24.0375 34.9128 26.3005 37.7383 26.3005C40.31 26.3005 42.7153 24.1808 42.7153 20.9307ZM56.935 12.0722C51.7512 12.0722 48.036 16.1245 48.036 20.8508C48.036 25.6472 51.6396 29.775 56.9952 29.775C61.8442 29.775 65.8165 26.0685 65.8165 20.9537C65.8176 15.0914 61.1963 12.0722 56.935 12.0722ZM56.9865 15.5488C59.5351 15.5488 61.9514 17.6094 61.9514 20.9307C61.9514 24.1808 59.5461 26.3005 56.9744 26.3005C54.1489 26.3005 51.9209 24.0375 51.9209 20.9044C51.9209 17.8393 54.1226 15.5488 56.9865 15.5488ZM67.4258 20.9253C67.4258 16.2481 71.1662 12.081 75.9243 12.081C77.9947 12.0821 79.5552 12.8831 80.6966 14.1131V12.395H84.4074V28.5198C84.4074 34.7684 80.8016 37.7482 76.0709 37.7482C71.7462 37.7482 69.3168 35.0868 68.1097 32.5349L71.512 31.1123C71.9836 32.2536 73.3395 34.2639 76.0435 34.2639C78.8428 34.2639 80.6966 32.4353 80.6966 29.3811V27.6356C79.7062 28.7847 78.3646 29.786 75.8422 29.786C71.7615 29.786 67.4258 26.2535 67.4258 20.9253ZM80.9964 20.945C80.9964 17.5427 78.601 15.5511 76.2679 15.5511C73.7717 15.5511 71.3205 17.5788 71.3194 20.9778C71.3194 24.2487 73.6798 26.3082 76.2164 26.3082C78.6064 26.3082 80.9964 24.403 80.9964 20.945ZM100.581 12.0601C96.0931 12.0601 92.3242 15.6309 92.3242 20.9C92.3242 26.4756 96.5242 29.7826 101.012 29.7826C104.757 29.7826 107.056 27.734 108.427 25.8978L105.367 23.8612C104.573 25.0934 103.246 26.2983 101.031 26.2983C98.5421 26.2983 97.3975 24.9359 96.6895 23.6161L108.558 18.6917L107.942 17.2483C106.796 14.4216 104.12 12.0612 100.581 12.0601ZM100.735 15.4645C102.353 15.4645 103.516 16.3247 104.01 17.3555L96.0843 20.668C95.7429 18.1029 98.1723 15.4645 100.735 15.4645ZM86.8858 3.16652H90.5212V29.2573H86.8858V3.16652Z" fill="white"/>
<path fill-rule="evenodd" clip-rule="evenodd" d="M202.02 20.178C202.02 13.74 206.263 9.23035 212.316 9.23035H212.76C216.558 9.23035 219.495 11.1586 221.053 13.9474C221.157 14.1253 221.126 14.2739 220.948 14.3621L218.337 15.652C218.159 15.7418 217.937 15.7418 217.818 15.5181C216.721 13.6192 215.073 12.6101 212.641 12.6101H212.195C208.382 12.6101 205.757 15.6356 205.757 20.0277C205.757 24.4329 208.338 27.3849 212.195 27.3849H212.641C215.132 27.3849 216.587 26.5392 217.699 25.2493C217.847 25.086 218.011 25.0566 218.189 25.1448L220.873 26.4494C220.977 26.5081 221.022 26.5833 221.022 26.6567C221.022 26.7302 220.992 26.7906 220.933 26.8788C219.288 29.2822 216.321 30.7647 212.701 30.7647H212.255C206.1 30.7696 202.02 26.5408 202.02 20.178ZM172.799 12.6428V9.91281C172.799 9.73484 172.682 9.61565 172.504 9.61565H157.551C157.373 9.61565 157.254 9.73484 157.254 9.91281V30.0887C157.254 30.2667 157.373 30.3859 157.551 30.3859H160.487C160.665 30.3859 160.784 30.2667 160.784 30.0887V21.8417H170.456C170.634 21.8417 170.754 21.7225 170.754 21.5445V18.8146C170.754 18.6366 170.634 18.5174 170.456 18.5174H160.784V12.9399H172.502C172.68 12.9399 172.799 12.8207 172.799 12.6428ZM193.479 30.3843H196.713C196.922 30.3843 197.04 30.2651 196.978 30.0578C195.094 23.4418 192.29 16.1287 189.382 10.0026C189.25 9.72181 189.087 9.61731 188.804 9.61731H184.592C184.311 9.61731 184.148 9.72017 184.014 10.0026C181.135 16.1434 178.288 23.4418 176.418 30.0578C176.359 30.2651 176.479 30.3843 176.686 30.3843H179.801C179.979 30.3843 180.098 30.2945 180.143 30.1165C180.559 28.4103 181.078 26.6143 181.671 24.8052H191.595C192.189 26.6159 192.707 28.4103 193.138 30.1165C193.182 30.2945 193.301 30.3843 193.479 30.3843ZM186.984 12.8796C188.215 15.6095 189.417 18.6056 190.499 21.6017H182.757C183.839 18.6056 185.055 15.6095 186.287 12.8796H186.984ZM244.682 30.0871V27.3571C244.682 27.1792 244.563 27.06 244.386 27.0633H232.044V21.6343H241.864C242.042 21.6343 242.161 21.5152 242.161 21.3372V18.6366C242.161 18.4586 242.042 18.3395 241.864 18.3395H232.044V12.9399H244.118C244.296 12.9399 244.416 12.8207 244.416 12.6428V9.91281C244.416 9.73484 244.296 9.61565 244.118 9.61565H228.81C228.632 9.61565 228.513 9.73484 228.513 9.91281V30.0871C228.513 30.2651 228.632 30.3843 228.81 30.3843H244.385C244.563 30.3843 244.682 30.2651 244.682 30.0871ZM271.502 24.6876C271.502 28.3221 268.713 30.3843 263.789 30.3843H253.582C253.404 30.3843 253.285 30.2651 253.285 30.0871V9.91282C253.285 9.73485 253.404 9.61566 253.582 9.61566H262.882C267.673 9.61566 270.284 11.5146 270.284 14.9858C270.284 17.27 269.126 18.7689 266.783 19.4661C270.078 20.1633 271.502 22.1356 271.502 24.6876ZM262.809 12.8501H256.817V18.4276H262.809C265.493 18.4276 266.724 17.5525 266.724 15.6389C266.724 13.7253 265.493 12.8501 262.809 12.8501ZM267.882 24.3758C267.882 22.4475 266.607 21.5723 263.803 21.5723H256.817V27.1498H263.803C266.651 27.1498 267.882 26.3187 267.882 24.3758ZM288.394 9.23035C281.868 9.23035 277.714 13.74 277.714 20C277.714 26.26 281.868 30.7696 288.394 30.7696H288.84C295.366 30.7696 299.519 26.26 299.519 20C299.519 13.74 295.367 9.23035 288.84 9.23035H288.394ZM295.782 20C295.782 24.4639 293.096 27.3866 288.84 27.3866H288.394C284.136 27.3866 281.451 24.4656 281.451 20C281.451 15.536 284.137 12.6134 288.394 12.6134H288.84C293.098 12.6134 295.782 15.5344 295.782 20ZM305.544 20C305.544 13.74 309.698 9.23035 316.225 9.23035H316.671C323.199 9.23035 327.351 13.74 327.351 20C327.351 26.26 323.197 30.7696 316.671 30.7696H316.225C309.698 30.7696 305.544 26.26 305.544 20ZM316.669 27.3866C320.926 27.3866 323.612 24.4639 323.612 20C323.612 15.5344 320.928 12.6134 316.669 12.6134H316.224C311.967 12.6134 309.281 15.536 309.281 20C309.281 24.4656 311.965 27.3866 316.224 27.3866H316.669ZM349.112 30.3843H352.939C353.177 30.3843 353.266 30.2063 353.101 30.0104C349.927 26.273 346.441 22.8018 342.762 19.6865C345.685 17.1949 348.844 13.9767 352.033 10.0451C352.108 9.95691 352.137 9.8818 352.137 9.82302C352.137 9.70546 352.049 9.61566 351.871 9.61566H348.251C348.074 9.61566 347.954 9.64505 347.806 9.83772C345.626 12.6722 342.956 15.4903 340.063 18.1011H338.313V9.91282C338.313 9.73485 338.194 9.61566 338.016 9.61566H335.078C334.9 9.61566 334.781 9.73485 334.781 9.91282V30.0871C334.781 30.2651 334.9 30.3843 335.078 30.3843H338.016C338.194 30.3843 338.313 30.2651 338.313 30.0871V21.5135H340.034C342.733 23.8288 345.908 26.9735 348.593 30.1328C348.756 30.3255 348.86 30.3843 349.112 30.3843Z" fill="white"/>
<path fill-rule="evenodd" clip-rule="evenodd" d="M437.948 6.91803C439.691 7.37613 441.061 8.72097 441.527 10.4323C442.371 13.531 442.371 20 442.371 20C442.371 20 442.371 26.4689 441.524 29.5676C441.058 31.2789 439.688 32.6238 437.945 33.0819C434.789 33.913 422.128 33.913 422.128 33.913C422.128 33.913 409.467 33.913 406.311 33.0819C404.568 32.6238 403.198 31.2789 402.731 29.5676C401.885 26.4689 401.885 20 401.885 20C401.885 20 401.885 13.531 402.731 10.4323C403.198 8.72097 404.568 7.37613 406.311 6.91803C409.467 6.08691 422.128 6.08691 422.128 6.08691C422.128 6.08691 434.789 6.08691 437.948 6.91803ZM428.601 19.9999L418.079 25.9617V14.0381L428.601 19.9999Z" fill="white"/>
<path d="M460.652 31.4C459.852 30.8699 459.282 30.0454 458.942 28.9263C458.606 27.8072 458.436 26.3217 458.436 24.4631V21.9338C458.436 20.0589 458.629 18.5504 459.015 17.415C459.402 16.2796 460.005 15.4485 460.825 14.9282C461.645 14.4079 462.721 14.1461 464.055 14.1461C465.368 14.1461 466.417 14.4112 467.211 14.9413C468 15.4714 468.58 16.3025 468.947 17.4281C469.314 18.557 469.497 20.0589 469.497 21.9338V24.4631C469.497 26.3217 469.317 27.8138 468.96 28.9394C468.604 30.0683 468.024 30.8928 467.224 31.4131C466.424 31.9334 465.338 32.1952 463.968 32.1952C462.555 32.1984 461.452 31.9301 460.652 31.4ZM465.138 28.6711C465.358 28.1017 465.471 27.1757 465.471 25.8865V20.4581C465.471 19.2081 465.361 18.2919 465.138 17.716C464.914 17.1369 464.524 16.8489 463.965 16.8489C463.425 16.8489 463.041 17.1369 462.821 17.716C462.598 18.2952 462.488 19.2081 462.488 20.4581V25.8865C462.488 27.1757 462.595 28.105 462.808 28.6711C463.021 29.2404 463.405 29.5251 463.965 29.5251C464.524 29.5251 464.914 29.2404 465.138 28.6711Z" fill="white"/>
<path d="M522.146 24.5057V25.3859C522.146 26.505 522.18 27.3426 522.246 27.9021C522.313 28.4617 522.453 28.8674 522.666 29.1259C522.879 29.3811 523.206 29.5088 523.649 29.5088C524.246 29.5088 524.659 29.2797 524.879 28.8249C525.102 28.3701 525.222 27.6109 525.242 26.5508L528.688 26.7504C528.708 26.9009 528.718 27.1103 528.718 27.3753C528.718 28.9852 528.268 30.1894 527.372 30.9845C526.475 31.7796 525.206 32.1788 523.566 32.1788C521.596 32.1788 520.217 31.5735 519.427 30.3595C518.633 29.1455 518.24 27.2706 518.24 24.7315V21.6884C518.24 19.074 518.65 17.1631 519.47 15.9589C520.29 14.7548 521.693 14.1527 523.683 14.1527C525.052 14.1527 526.105 14.3981 526.839 14.8922C527.572 15.3863 528.088 16.152 528.388 17.1958C528.688 18.2396 528.838 19.6793 528.838 21.5182V24.5024H522.146V24.5057ZM522.653 17.1729C522.449 17.4183 522.316 17.8208 522.246 18.3803C522.18 18.9398 522.146 19.7873 522.146 20.926V22.1759H525.069V20.926C525.069 19.8069 525.029 18.9594 524.952 18.3803C524.876 17.8011 524.736 17.3954 524.532 17.1565C524.329 16.9209 524.016 16.7999 523.593 16.7999C523.169 16.8031 522.853 16.9275 522.653 17.1729Z" fill="white"/>
<path d="M450.919 24.1817L446.373 8.06329H450.339L451.932 15.3699C452.339 17.1696 452.635 18.7042 452.829 19.9738H452.945C453.078 19.0642 453.378 17.5393 453.842 15.3961L455.491 8.06329H459.457L454.858 24.1817V31.9138H450.919V24.1817Z" fill="white"/>
<path d="M482.396 14.4865V31.9138H479.27L478.924 29.7804H478.837C477.987 31.3902 476.714 32.1952 475.014 32.1952C473.838 32.1952 472.968 31.8156 472.408 31.0598C471.848 30.3006 471.568 29.1161 471.568 27.5062V14.4865H475.564V27.2772C475.564 28.056 475.651 28.6089 475.824 28.9394C475.998 29.2699 476.287 29.4368 476.694 29.4368C477.041 29.4368 477.374 29.3321 477.694 29.1227C478.014 28.9132 478.247 28.6482 478.404 28.3275V14.4865H482.396Z" fill="white"/>
<path d="M502.892 14.4865V31.9138H499.766L499.42 29.7804H499.333C498.483 31.3902 497.21 32.1952 495.51 32.1952C494.334 32.1952 493.464 31.8156 492.904 31.0598C492.344 30.3006 492.064 29.1161 492.064 27.5062V14.4865H496.06V27.2772C496.06 28.056 496.147 28.6089 496.32 28.9394C496.494 29.2699 496.784 29.4368 497.19 29.4368C497.537 29.4368 497.87 29.3321 498.19 29.1227C498.51 28.9132 498.743 28.6482 498.9 28.3275V14.4865H502.892Z" fill="white"/>
<path d="M493.253 11.2176H489.287V31.9138H485.378V11.2176H481.412V8.06329H493.253V11.2176Z" fill="white"/>
<path d="M516.115 17.2711C515.872 16.1716 515.482 15.3765 514.942 14.8824C514.402 14.3883 513.659 14.1429 512.713 14.1429C511.98 14.1429 511.293 14.3458 510.656 14.7548C510.02 15.1638 509.527 15.6972 509.18 16.3614H509.15V7.17984H505.301V31.9105H508.6L509.007 30.2614H509.093C509.403 30.8503 509.867 31.3117 510.483 31.6553C511.1 31.9956 511.786 32.1657 512.539 32.1657C513.889 32.1657 514.886 31.5538 515.522 30.3333C516.159 29.1096 516.479 27.2019 516.479 24.6039V21.8455C516.479 19.8986 516.355 18.3738 516.115 17.2711ZM512.453 24.3814C512.453 25.6509 512.399 26.6457 512.293 27.3655C512.186 28.0854 512.01 28.5991 511.756 28.9002C511.506 29.2045 511.166 29.355 510.743 29.355C510.413 29.355 510.11 29.2797 509.83 29.1259C509.55 28.9754 509.323 28.7464 509.15 28.4453V18.5537C509.283 18.0793 509.517 17.6932 509.847 17.3888C510.173 17.0845 510.533 16.934 510.916 16.934C511.323 16.934 511.636 17.0911 511.856 17.4019C512.08 17.7161 512.233 18.2396 512.319 18.9791C512.406 19.7186 512.449 20.7689 512.449 22.1334V24.3814H512.453Z" fill="white"/>
<path d="M659.155 20.0395C659.155 19.5656 659.128 19.0916 659.102 18.644C659.076 18.1964 658.997 17.7225 658.944 17.2749H652.546H646.148L644.199 20.3291L642.251 23.3833H652.125C651.545 25.3844 650.413 27.0958 648.886 28.307C647.359 29.5181 645.437 30.2553 643.199 30.2553C640.408 30.2553 637.933 29.0968 636.116 27.2274C634.3 25.3581 633.194 22.8041 633.194 19.9868C633.194 17.2222 634.3 14.6946 636.143 12.8516C637.959 11.0085 640.487 9.85 643.278 9.85C644.489 9.85 645.621 10.0343 646.674 10.4029C647.728 10.7452 648.675 11.2718 649.518 11.9037L651.229 9.16544L652.941 6.42717C651.624 5.50564 650.15 4.76842 648.517 4.29449C646.911 3.79423 645.147 3.55726 643.304 3.55726C640.829 3.55726 638.591 4.00486 636.617 4.82108C634.642 5.63729 632.878 6.82211 631.403 8.29656C627.901 11.7984 626.901 15.3529 626.216 18.5914C625.505 21.8562 625.111 24.8315 622.715 27.2011C621.714 28.2016 620.635 28.9652 619.423 29.4654C618.212 29.9657 616.922 30.229 615.527 30.229C612.657 30.229 610.076 29.0442 608.181 27.1748C606.311 25.3054 605.153 22.7514 605.153 19.9868C605.153 17.2749 606.311 14.7473 608.181 12.8779C610.05 11.0085 612.63 9.82367 615.527 9.79734C616.738 9.82367 617.844 10.008 618.87 10.3239C619.897 10.6399 620.845 11.1401 621.688 11.7721L623.425 9.03379L625.163 6.29552C623.847 5.37399 622.372 4.66309 620.766 4.18916C619.16 3.71523 617.396 3.47827 615.553 3.47827C612.709 3.47827 610.05 4.16283 607.733 5.37399C605.416 6.58514 603.441 8.29657 601.941 10.3503C601.361 8.53353 600.15 6.98009 598.491 5.90058C596.833 4.79474 594.726 4.16284 592.357 4.16284H584.932H577.533V20.0395V35.8635H593.857C595.911 35.8635 597.754 35.3633 599.281 34.5207C600.808 33.6782 602.02 32.467 602.862 31.0452C604.389 32.7303 606.232 34.0994 608.339 35.0473C610.445 35.9952 612.788 36.5217 615.316 36.5217C618.265 36.5217 620.977 35.8372 623.32 34.5997C625.663 33.3622 627.638 31.5981 629.165 29.4128C630.613 31.5718 632.588 33.3359 634.958 34.5734C637.301 35.8109 640.066 36.5217 643.015 36.5217C647.57 36.5217 651.598 34.6787 654.494 31.6771C657.39 28.7282 659.155 24.5945 659.155 20.0395ZM584.405 17.0116V10.087H592.225C593.226 10.087 594.094 10.4556 594.726 11.0612C595.358 11.6667 595.753 12.5356 595.753 13.5361C595.753 14.5366 595.358 15.4055 594.726 16.0111C594.094 16.643 593.199 17.0116 592.225 17.0116H588.328H584.405ZM584.405 29.992V22.8041H593.778C594.832 22.8041 595.753 23.199 596.438 23.8309C597.122 24.4629 597.544 25.3581 597.544 26.3849C597.544 27.4118 597.122 28.307 596.438 28.9652C595.753 29.6234 594.832 30.0184 593.778 30.0184H589.092H584.405V29.992Z" fill="white"/>
<path d="M674.766 32.0194C674.793 32.0721 674.793 32.1511 674.793 32.23C674.793 32.309 674.819 32.4143 674.819 32.4933C674.819 33.4939 674.477 34.3627 673.871 34.9946C673.266 35.6265 672.397 35.9952 671.396 35.9952C670.396 35.9952 669.474 35.6002 668.816 34.9156C668.158 34.2574 667.763 33.3359 667.763 32.309C667.763 31.2822 668.184 30.3607 668.842 29.7024C669.5 29.0442 670.422 28.6229 671.449 28.6229C671.87 28.6229 672.265 28.6756 672.634 28.7809C673.002 28.8862 673.345 29.0442 673.66 29.2811L673.371 29.7287L673.081 30.1763C672.844 29.992 672.581 29.8604 672.318 29.7814C672.054 29.7024 671.765 29.6498 671.449 29.6498C670.738 29.6498 670.106 29.9394 669.658 30.387C669.211 30.8346 668.921 31.4928 668.921 32.2564C668.921 32.9936 669.184 33.6518 669.632 34.1258C670.08 34.5997 670.685 34.8893 671.396 34.8893C672.054 34.8893 672.581 34.6787 672.976 34.3364C673.371 33.9941 673.608 33.4939 673.713 32.9409H671.317L671.633 32.4407L671.949 31.9404L674.766 32.0194ZM686.667 36.0478C687.694 36.0478 688.616 35.6265 689.3 34.9683C689.958 34.3101 690.38 33.3885 690.38 32.388C690.38 31.3875 689.958 30.466 689.3 29.8077C688.642 29.1495 687.694 28.7282 686.667 28.7282C685.64 28.7282 684.719 29.1495 684.061 29.8077C683.402 30.466 682.981 31.3875 682.981 32.388C682.981 33.3885 683.402 34.3101 684.061 34.9683C684.719 35.6265 685.64 36.0478 686.667 36.0478ZM693.039 28.8599V33.1779C693.039 33.6782 693.223 34.1521 693.539 34.468C693.855 34.784 694.303 34.9946 694.829 34.9946C695.356 34.9946 695.804 34.784 696.119 34.468C696.435 34.1521 696.62 33.6782 696.62 33.1779V28.8599H697.726V33.1779C697.726 33.9941 697.41 34.705 696.909 35.2316C696.383 35.7319 695.672 36.0478 694.829 36.0478C693.987 36.0478 693.276 35.7319 692.749 35.2316C692.223 34.7313 691.907 34.0204 691.907 33.1779V28.8599H693.039ZM679.242 28.8599C679.98 28.8599 680.585 29.0968 681.006 29.5181C681.428 29.913 681.665 30.4923 681.665 31.1242C681.665 31.6508 681.507 32.0984 681.243 32.467C680.98 32.8356 680.585 33.0989 680.085 33.2042L680.927 34.547L681.77 35.8898H680.453L679.664 34.626L678.874 33.3622H677.531V35.8898H676.399V28.8599H679.242ZM702.518 28.8599C703.255 28.8599 703.86 29.1232 704.308 29.5181C704.729 29.9394 704.966 30.4923 704.966 31.1505C704.966 31.7824 704.729 32.3617 704.308 32.783C703.887 33.2042 703.255 33.4412 702.518 33.4412H700.911V35.8898H699.779V28.8599H702.518ZM686.667 34.9946C685.956 34.9946 685.324 34.705 684.877 34.2311C684.429 33.7571 684.14 33.0989 684.14 32.388C684.14 31.6771 684.429 31.0189 684.877 30.545C685.324 30.071 685.983 29.7814 686.667 29.7814C687.378 29.7814 688.01 30.071 688.484 30.545C688.932 31.0189 689.221 31.6771 689.221 32.388C689.221 33.1252 688.932 33.7835 688.484 34.2311C688.036 34.705 687.404 34.9946 686.667 34.9946ZM702.518 32.4407C702.886 32.4407 703.202 32.309 703.439 32.0984C703.676 31.8878 703.808 31.5718 703.808 31.1769C703.808 30.7819 703.676 30.4923 703.439 30.2553C703.202 30.0447 702.886 29.913 702.518 29.913H700.911V32.4407H702.518ZM679.242 32.3354C679.611 32.3354 679.901 32.23 680.138 32.0194C680.348 31.8088 680.48 31.5191 680.48 31.1242C680.48 30.7556 680.348 30.4396 680.138 30.229C679.927 30.0184 679.611 29.8867 679.242 29.8867H677.531V32.3354H679.242ZM735.456 19.6972C735.482 19.7499 735.482 19.8289 735.482 19.9079C735.482 19.9868 735.508 20.0922 735.508 20.1711C735.508 21.1717 735.166 22.0405 734.561 22.6724C733.955 23.3044 733.086 23.6993 732.086 23.6993C731.059 23.6993 730.164 23.3043 729.505 22.6198C728.847 21.9615 728.452 21.04 728.452 20.0132C728.452 18.9863 728.847 18.0648 729.532 17.4066C730.19 16.7483 731.111 16.327 732.138 16.327C732.559 16.327 732.954 16.3797 733.323 16.485C733.692 16.5903 734.034 16.7483 734.35 16.9853L734.06 17.4329L733.771 17.8805C733.534 17.6962 733.27 17.5645 733.007 17.4855C732.744 17.4066 732.454 17.3539 732.138 17.3539C731.427 17.3539 730.795 17.6435 730.348 18.0911C729.9 18.5651 729.611 19.2233 729.611 19.9605C729.611 20.6977 729.874 21.356 730.321 21.8299C730.769 22.3038 731.375 22.5935 732.086 22.5935C732.744 22.5935 733.27 22.3828 733.665 22.0405C734.06 21.6983 734.297 21.198 734.403 20.6451H732.007L732.323 20.1448L732.638 19.6446L735.456 19.6972ZM699.095 16.5377V20.8557C699.095 21.356 699.279 21.8299 699.595 22.1459C699.911 22.4618 700.359 22.6724 700.885 22.6724C701.412 22.6724 701.859 22.4618 702.175 22.1459C702.491 21.8299 702.676 21.356 702.676 20.8557V16.5377H703.781V20.8557C703.781 21.6719 703.465 22.3828 702.965 22.9094C702.439 23.4097 701.728 23.7256 700.885 23.7256C700.043 23.7256 699.332 23.4097 698.805 22.9094C698.279 22.4091 697.963 21.6983 697.963 20.8557V16.5377H699.095ZM693.855 23.7256C694.645 23.7256 695.251 23.4887 695.672 23.1201C696.093 22.7251 696.33 22.1985 696.33 21.5929C696.33 20.9347 696.067 20.4871 695.672 20.1975C695.277 19.8815 694.75 19.7235 694.197 19.5392C693.75 19.4076 693.355 19.3023 693.092 19.118C692.828 18.96 692.67 18.7494 692.67 18.4071C692.67 18.1174 692.776 17.8805 692.96 17.6962C693.171 17.5119 693.46 17.4066 693.881 17.4066C694.145 17.4066 694.408 17.4592 694.671 17.5382C694.935 17.6172 695.198 17.7488 695.461 17.9331L695.751 17.4855L696.041 17.0379C695.751 16.8273 695.435 16.6693 695.093 16.564C694.724 16.4587 694.355 16.3797 693.934 16.3797C693.197 16.3797 692.591 16.5903 692.196 16.9589C691.801 17.3276 691.564 17.8542 691.564 18.4597C691.564 19.1443 691.828 19.5656 692.223 19.8552C692.618 20.1448 693.144 20.3291 693.697 20.4871C694.145 20.6188 694.54 20.7504 694.803 20.9084C695.066 21.0663 695.224 21.277 695.224 21.6193C695.224 21.9089 695.119 22.1722 694.882 22.3565C694.671 22.5408 694.329 22.6461 693.881 22.6461C693.513 22.6461 693.197 22.5671 692.881 22.4618C692.565 22.3302 692.249 22.1722 691.959 21.9879L691.67 22.4355L691.38 22.8831C691.67 23.0937 692.012 23.3044 692.433 23.4623C692.828 23.6203 693.302 23.7256 693.855 23.7256ZM678.505 23.7256C679.532 23.7256 680.453 23.3044 681.138 22.6461C681.796 21.9879 682.218 21.0664 682.218 20.0658C682.218 19.0653 681.796 18.1438 681.138 17.4592C680.453 16.801 679.532 16.3797 678.505 16.3797C677.478 16.3797 676.557 16.801 675.898 17.4592C675.24 18.1175 674.819 19.039 674.819 20.0658C674.819 21.0664 675.24 21.9879 675.898 22.6461C676.557 23.3044 677.478 23.7256 678.505 23.7256ZM667.736 20.0658C667.736 21.0927 668.158 22.0142 668.816 22.6724C669.5 23.3307 670.422 23.752 671.475 23.752C671.975 23.752 672.397 23.673 672.792 23.5413C673.187 23.4097 673.502 23.2254 673.845 22.9621L673.555 22.5145L673.266 22.0669C673.002 22.2775 672.713 22.4355 672.423 22.5408C672.133 22.6461 671.791 22.6988 671.449 22.6988C670.764 22.6988 670.132 22.4092 669.685 21.9352C669.237 21.4613 668.947 20.8031 668.947 20.0658C668.947 19.3286 669.211 18.6704 669.685 18.1964C670.132 17.7225 670.764 17.4329 671.449 17.4329C671.817 17.4329 672.133 17.4855 672.423 17.5909C672.713 17.6962 673.002 17.8542 673.266 18.0648L673.555 17.6172L673.845 17.1696C673.529 16.9326 673.187 16.722 672.792 16.5903C672.397 16.4587 671.975 16.3797 671.475 16.3797C670.422 16.3797 669.5 16.7746 668.816 17.4592C668.158 18.1175 667.736 19.039 667.736 20.0658ZM718.579 23.5676H717.446V16.5377H718.579V23.5676ZM722.159 23.5676H721.08V16.5377H722.475L724.108 19.197L725.74 21.8562V16.5377H726.82V23.5676H725.503L723.818 20.8557L722.133 18.1438V23.5676H722.159ZM715.735 17.5909H713.523V23.5676H712.365V17.5909H710.179V16.5377H715.735V17.5909ZM706.915 22.5145H710.39V23.5676H705.782V16.5377H706.915V22.5145ZM684.903 23.5676H683.824V16.5377H685.219L686.852 19.197L688.484 21.8562V16.5377H689.563V23.5676H688.247L686.562 20.8557L684.877 18.1438V23.5676H684.903ZM678.505 22.6724C677.794 22.6724 677.162 22.3828 676.715 21.9089C676.267 21.435 675.977 20.7767 675.977 20.0658C675.977 19.3286 676.267 18.6704 676.715 18.2228C677.162 17.7488 677.821 17.4592 678.505 17.4592C679.216 17.4592 679.848 17.7488 680.322 18.2228C680.769 18.6967 681.059 19.3549 681.059 20.0658C681.059 20.8031 680.769 21.4613 680.322 21.9089C679.848 22.3828 679.216 22.6724 678.505 22.6724ZM699.121 11.3771C700.148 11.3771 701.069 10.9558 701.754 10.2976C702.412 9.63936 702.834 8.71783 702.834 7.71731C702.834 6.71679 702.412 5.79526 701.754 5.11069C701.096 4.45245 700.174 4.03119 699.121 4.03119C698.094 4.03119 697.173 4.45245 696.514 5.11069C695.856 5.76893 695.435 6.69046 695.435 7.71731C695.435 8.71783 695.856 9.63936 696.514 10.2976C697.173 10.9822 698.094 11.3771 699.121 11.3771ZM685.588 11.3771C686.378 11.3771 686.983 11.1665 687.404 10.7715C687.826 10.3766 688.063 9.85 688.063 9.24442C688.063 8.58618 687.799 8.13859 687.404 7.84896C687.009 7.55934 686.483 7.37503 685.93 7.19072C685.482 7.05908 685.087 6.95376 684.824 6.76945C684.561 6.61147 684.403 6.40084 684.403 6.05855C684.403 5.76893 684.508 5.53197 684.693 5.34766C684.903 5.16336 685.193 5.05804 685.614 5.05804C685.877 5.05804 686.141 5.1107 686.404 5.18968C686.667 5.26867 686.931 5.40032 687.194 5.58463L687.483 5.13702L687.773 4.68943C687.483 4.47879 687.167 4.32081 686.825 4.21549C686.457 4.11017 686.088 4.03119 685.667 4.03119C684.929 4.03119 684.324 4.24182 683.929 4.61043C683.534 4.97904 683.297 5.50564 683.297 6.11121C683.297 6.79578 683.56 7.21705 683.955 7.50667C684.35 7.7963 684.877 7.9806 685.43 8.13858C685.877 8.27023 686.272 8.40188 686.536 8.55985C686.799 8.71783 686.957 8.92847 686.957 9.27075C686.957 9.56037 686.852 9.82367 686.615 10.008C686.404 10.1923 686.062 10.2976 685.614 10.2976C685.245 10.2976 684.929 10.2186 684.614 10.1133C684.298 9.98164 683.982 9.82367 683.692 9.63936L683.402 10.087L683.113 10.5346C683.402 10.7452 683.745 10.9558 684.166 11.1138C684.561 11.2981 685.035 11.3771 685.588 11.3771ZM678.294 11.3771C679.321 11.3771 680.243 10.9558 680.927 10.2976C681.586 9.63936 682.007 8.71783 682.007 7.71731C682.007 6.71679 681.586 5.79526 680.927 5.11069C680.269 4.45245 679.348 4.03119 678.294 4.03119C677.268 4.03119 676.346 4.45245 675.688 5.11069C675.03 5.76893 674.608 6.69046 674.608 7.71731C674.608 8.71783 675.03 9.63936 675.688 10.2976C676.346 10.9822 677.268 11.3771 678.294 11.3771ZM705.835 4.21549L707.467 6.87477L709.1 9.53405V4.21549H710.179V11.2455H708.863L707.178 8.53352L705.493 5.82159V11.2718H704.44V4.24182L705.835 4.21549ZM694.724 4.21549V5.26867H692.512V11.2455H691.354V5.26867H689.169V4.21549H694.724ZM670.87 4.21549C671.501 4.21549 672.028 4.42613 672.423 4.74208C672.818 5.08436 673.055 5.55829 673.055 6.08488C673.055 6.40084 672.976 6.66413 672.844 6.9011C672.686 7.13806 672.502 7.3487 672.239 7.48034C672.581 7.63832 672.871 7.87529 673.055 8.16491C673.239 8.45453 673.345 8.79682 673.345 9.16543C673.345 9.74468 673.108 10.2449 672.713 10.6136C672.318 10.9822 671.765 11.1928 671.106 11.1928H668.105V4.16284L670.87 4.21549ZM699.121 10.3239C698.41 10.3239 697.778 10.0343 697.331 9.56038C696.883 9.08645 696.593 8.42821 696.593 7.71731C696.593 7.00642 696.883 6.32185 697.331 5.87425C697.778 5.40032 698.436 5.11069 699.121 5.11069C699.832 5.11069 700.464 5.40032 700.938 5.87425C701.385 6.34818 701.675 7.00642 701.675 7.71731C701.675 8.45454 701.385 9.11278 700.938 9.56038C700.464 10.0606 699.832 10.3239 699.121 10.3239ZM678.294 10.3239C677.584 10.3239 676.952 10.0343 676.504 9.56038C676.056 9.08645 675.767 8.42821 675.767 7.71731C675.767 7.00642 676.056 6.32185 676.504 5.87425C676.952 5.40032 677.61 5.11069 678.294 5.11069C679.005 5.11069 679.637 5.40032 680.111 5.87425C680.559 6.34818 680.848 7.00642 680.848 7.71731C680.848 8.45454 680.559 9.11278 680.111 9.56038C679.637 10.0606 679.005 10.3239 678.294 10.3239ZM671.054 10.2186C671.37 10.2186 671.633 10.1133 671.844 9.90266C672.028 9.71835 672.16 9.45506 672.16 9.16543C672.16 8.87581 672.054 8.61251 671.844 8.4282C671.633 8.2439 671.37 8.13858 671.054 8.13858H669.237V10.1923L671.054 10.2186ZM670.87 7.19072C671.159 7.19072 671.422 7.08541 671.607 6.9011C671.791 6.71679 671.896 6.47982 671.896 6.1902C671.896 5.90058 671.791 5.66362 671.607 5.47931C671.422 5.295 671.159 5.18968 670.87 5.18968H669.237V7.16439L670.87 7.19072Z" fill="white"/>
<g clip-path="url(#clip0)">
<path d="M784.201 2.6087H799.748C799.747 8.12423 799.748 13.6398 799.747 19.1553C794.566 19.1553 789.384 19.1553 784.201 19.1553V2.6087Z" fill="white"/>
<path d="M801.336 2.6087H816.883C816.883 8.12423 816.884 13.6398 816.882 19.1553C811.701 19.1543 806.519 19.1553 801.337 19.1553C801.335 13.6398 801.336 8.12423 801.336 2.6087Z" fill="white"/>
<path d="M852.41 9.12198C853.088 9.01266 853.822 9.25912 854.271 9.82359C854.797 10.4417 854.894 11.4256 854.504 12.1481C854.073 12.963 853.107 13.3416 852.266 13.1458C851.393 12.9789 850.665 12.1153 850.705 11.1523C850.679 10.1386 851.476 9.23527 852.41 9.12198Z" fill="white"/>
<path d="M826.642 9.56519C828.272 9.56519 829.901 9.56519 831.532 9.56519C833.054 13.6785 834.587 17.7878 836.111 21.9011C836.5 22.9297 836.865 23.9702 837.273 24.9908C839.231 19.8509 841.217 14.724 843.16 9.57712C844.728 9.55029 846.296 9.57116 847.865 9.56718C847.861 16.5227 847.863 23.4782 847.864 30.4338C846.733 30.4308 845.602 30.4437 844.471 30.4268C844.483 25.2939 844.47 20.161 844.477 15.0271C844.478 14.7965 844.471 14.5659 844.456 14.3354C844.39 14.4427 844.331 14.554 844.28 14.6693C842.336 19.9235 840.356 25.1627 838.424 30.4218C837.619 30.4527 836.813 30.4238 836.007 30.4377C834.003 25.1836 832.023 19.9175 830.028 14.6594C829.976 14.55 829.92 14.4437 829.859 14.3413C829.818 16.5903 829.853 18.8412 829.842 21.0902C829.843 24.2047 829.84 27.3192 829.843 30.4338C828.775 30.4367 827.708 30.4338 826.642 30.4348C826.641 23.4782 826.64 16.5217 826.642 9.56519Z" fill="white"/>
<path d="M861.665 15.4633C863.288 14.9714 865.038 14.9913 866.66 15.4792C866.994 15.5786 867.318 15.7167 867.619 15.9046C867.6 17.0444 867.619 18.1853 867.608 19.3262C866.524 18.4447 865.149 17.8862 863.77 18.071C862.676 18.1764 861.632 18.7806 860.978 19.7217C860.136 20.8884 859.942 22.4377 860.087 23.8648C860.195 24.9818 860.629 26.0979 861.445 26.8382C862.293 27.6402 863.482 27.9244 864.591 27.835C865.687 27.7008 866.722 27.2069 867.608 26.5172C867.618 27.5975 867.604 28.6777 867.616 29.758C866.241 30.6285 864.593 30.8531 863.02 30.7707C861.41 30.6802 859.805 30.0313 858.639 28.8268C857.373 27.5279 856.686 25.6755 856.605 23.8201C856.523 21.8912 856.891 19.8787 857.934 18.2678C858.808 16.8934 860.176 15.9205 861.665 15.4633Z" fill="white"/>
<path d="M898.395 15.2358C899.95 14.9446 901.577 15.1582 903.049 15.7515C903.051 16.8487 903.049 17.9448 903.05 19.041C902.022 18.2887 900.766 17.8842 899.518 17.9309C898.89 17.9568 898.199 18.24 897.912 18.876C897.684 19.5051 897.842 20.3299 898.399 20.7066C899.353 21.3853 900.49 21.6735 901.478 22.2817C902.256 22.7468 903.01 23.355 903.404 24.2315C904.145 25.8733 903.831 28.0427 902.529 29.2671C901.287 30.5033 899.497 30.8452 897.85 30.7796C896.681 30.6991 895.507 30.4537 894.432 29.9448C894.437 28.791 894.425 27.6382 894.438 26.4855C895.341 27.1841 896.384 27.684 897.488 27.8867C898.257 28.0199 899.092 28.0258 899.809 27.6601C900.494 27.2974 900.617 26.2609 900.21 25.6268C899.829 25.1379 899.27 24.8686 898.742 24.6042C897.751 24.1302 896.71 23.7337 895.84 23.0231C895.228 22.5153 894.765 21.7997 894.584 20.9928C894.315 19.8032 894.399 18.4626 895.049 17.4231C895.791 16.2117 897.081 15.4852 898.395 15.2358Z" fill="white"/>
<path d="M875.136 15.7068C876.065 15.1136 877.244 15.0639 878.257 15.4266C878.252 16.6201 878.257 17.8137 878.254 19.0072C877.591 18.5501 876.764 18.3543 875.982 18.4388C875.027 18.554 874.271 19.3342 873.879 20.2286C873.453 21.1757 873.373 22.247 873.4 23.2825C873.4 25.6666 873.401 28.0507 873.4 30.4348C872.294 30.4348 871.189 30.4348 870.085 30.4348C870.082 25.4519 870.089 20.4681 870.082 15.4852C871.189 15.4703 872.295 15.4763 873.402 15.4822C873.397 16.3379 873.402 17.1936 873.399 18.0502C873.758 17.119 874.293 16.2147 875.136 15.7068Z" fill="white"/>
<path d="M851.012 15.4822C852.127 15.4773 853.242 15.4653 854.357 15.4882C854.344 20.4701 854.356 25.4529 854.352 30.4348C853.239 30.4348 852.126 30.4348 851.014 30.4348C851.011 25.4509 851.015 20.4671 851.012 15.4822Z" fill="white"/>
<path d="M892.194 18.9695C891.611 17.5881 890.557 16.4343 889.258 15.8102C887.76 15.0847 886.058 14.9874 884.444 15.206C882.749 15.4336 881.099 16.2823 880.024 17.7203C879.041 19.0042 878.563 20.6539 878.472 22.2907C878.336 24.2196 878.639 26.2668 879.703 27.8768C880.61 29.2661 882.041 30.2211 883.588 30.5729C884.88 30.8621 886.232 30.8631 887.525 30.5769C889.036 30.246 890.448 29.3555 891.385 28.0418C892.3 26.8045 892.759 25.2442 892.863 23.687C892.968 22.0919 892.817 20.4403 892.194 18.9695ZM888.947 25.8346C888.625 26.6037 888.037 27.2537 887.295 27.5618C886.426 27.9165 885.451 27.9374 884.554 27.69C883.642 27.4346 882.868 26.7329 882.447 25.8395C881.905 24.6887 881.824 23.358 881.936 22.0959C882.038 20.9481 882.413 19.7675 883.235 18.9754C883.831 18.3831 884.643 18.0939 885.447 18.0462C886.457 17.9757 887.533 18.2798 888.259 19.0619C889.036 19.8748 889.337 21.0544 889.42 22.1794C889.48 23.4107 889.432 24.6937 888.947 25.8346Z" fill="white"/>
<path d="M919.125 19.4017C918.607 17.917 917.572 16.633 916.236 15.9225C914.705 15.0996 912.923 14.9794 911.246 15.201C909.892 15.3858 908.563 15.9324 907.53 16.8974C906.269 18.0532 905.53 19.7525 905.312 21.4907C905.105 23.2288 905.175 25.0594 905.841 26.6862C906.48 28.2822 907.74 29.5781 909.257 30.2132C910.753 30.8402 912.417 30.9108 913.993 30.6395C915.603 30.3563 917.129 29.4549 918.126 28.0676C919.192 26.6345 919.65 24.7801 919.647 22.9734C919.671 21.764 919.529 20.5376 919.125 19.4017ZM916.092 24.472C915.963 25.2591 915.707 26.0442 915.222 26.6673C914.734 27.2934 914.008 27.675 913.258 27.7923C912.453 27.9205 911.605 27.8589 910.852 27.514C910.04 27.1483 909.411 26.4 909.079 25.5394C908.68 24.5138 908.601 23.3779 908.68 22.2807C908.757 21.2184 909.04 20.1282 909.699 19.3024C910.301 18.5312 911.223 18.1048 912.153 18.0492C913.103 17.9786 914.117 18.2122 914.847 18.8949C915.52 19.4892 915.893 20.3796 916.064 21.276C916.256 22.3274 916.254 23.4156 916.092 24.472Z" fill="white"/>
<path d="M937.246 18.3831V15.4773C936.137 15.4812 935.027 15.4683 933.919 15.4852C933.894 13.9915 933.916 12.4979 933.907 11.0052C932.798 11.361 931.695 11.7396 930.58 12.0775C930.553 13.2104 930.578 14.3443 930.566 15.4773C928.926 15.4763 927.286 15.4792 925.647 15.4753C925.667 14.5828 925.589 13.6835 925.709 12.796C925.809 12.0964 926.19 11.3968 926.831 11.1264C927.638 10.7737 928.541 11.0082 929.309 11.3679C929.304 10.3453 929.316 9.32272 929.302 8.30111C927.687 7.82806 925.835 7.92049 924.402 8.91328C923.478 9.54334 922.807 10.551 922.506 11.6681C922.149 12.9053 922.331 14.2122 922.274 15.4822C921.496 15.4763 920.719 15.4683 919.943 15.4872C919.952 16.4432 919.948 17.3992 919.945 18.3543C920.725 18.3712 921.506 18.3513 922.285 18.3672C922.279 22.3901 922.283 26.4119 922.283 30.4348C923.404 30.4348 924.525 30.4348 925.646 30.4348C925.646 26.4109 925.645 22.3871 925.647 18.3632C927.286 18.3602 928.927 18.3612 930.568 18.3622C930.572 20.9272 930.563 23.4912 930.571 26.0551C930.586 27.2497 930.778 28.5267 931.521 29.4698C932.164 30.3046 933.186 30.6862 934.172 30.7637C935.211 30.8422 936.285 30.7071 937.246 30.2628V27.3282C936.509 27.8529 935.491 28.0616 934.689 27.5836C934.21 27.3023 934.024 26.7001 933.963 26.1565C933.861 25.2343 933.925 24.3041 933.908 23.3789C933.907 21.7073 933.911 20.0368 933.906 18.3662C935.019 18.3702 936.133 18.3344 937.246 18.3831Z" fill="white"/>
<path d="M784.201 20.8438C789.384 20.8457 794.566 20.8428 799.748 20.8457C799.749 26.3613 799.748 31.8758 799.748 37.3913H784.201V20.8438Z" fill="white"/>
<path d="M801.337 20.8457C806.518 20.8437 811.701 20.8447 816.883 20.8447C816.883 26.3603 816.883 31.8758 816.883 37.3913H801.336C801.337 31.8758 801.335 26.3603 801.337 20.8457Z" fill="white"/>
</g>
<g clip-path="url(#clip1)">
<path d="M1002.93 11.4033C1002.93 11.4033 1003.06 10.8269 1002.64 10.6692C1002.64 10.6692 999.895 10.9287 999.504 15.4775C999.504 15.4775 1002.99 13.2474 1002.93 11.4033Z" fill="white"/>
<path d="M996.471 27.9186C996.471 27.9186 996.45 28.5344 996.631 28.9121C996.811 29.2898 997.192 29.4343 997.545 29.6708C997.545 29.6708 999.739 30.6922 1001.7 25.9102C1001.7 25.9102 1002.48 23.9478 1002.41 22.143C1002.41 22.143 996.55 25.0168 996.471 27.9186Z" fill="white"/>
<path d="M1012.83 12.8139C1013.25 12.1373 1013.72 11.2965 1012.88 10.7234C1012.88 10.7234 1010.89 10.4606 1010.79 15.0078C1010.79 15.0061 1012.14 13.9371 1012.83 12.8139Z" fill="white"/>
<path d="M1005.95 0C994.899 0 985.945 8.95476 985.945 20.0016C985.945 31.0436 994.899 40 1005.95 40C1016.99 40 1025.95 31.0436 1025.95 20.0016C1025.95 8.95476 1016.99 0 1005.95 0ZM1005.93 39.2709C995.308 39.2709 986.691 30.656 986.691 20.0246C986.691 9.39814 995.306 0.780031 1005.93 0.780031C1016.56 0.780031 1025.18 9.39814 1025.18 20.0246C1025.18 30.6544 1016.56 39.2709 1005.93 39.2709Z" fill="white"/>
<path d="M1018.14 6.2501C1018.14 6.2501 1014.95 3.31061 1008.78 3.64069C1008.78 3.64069 1006.77 3.92643 1005.87 4.81156C1004.95 5.7246 1003.37 5.85762 1002.8 4.65555C1002.8 4.65555 1001.55 2.30396 1006.48 1.76369L1006.77 1.73906L1007.42 1.67994L1005.93 1.62082C1000.45 1.62082 995.529 4.02003 992.158 7.81837C992.158 7.81837 989.217 11.014 989.546 17.1837C989.546 17.1837 989.831 19.1888 990.72 20.0837C991.631 21.0083 991.766 22.5881 990.562 23.1628C990.562 23.1628 988.212 24.4174 987.672 19.4745L987.648 19.1888L987.59 18.5401L987.529 20.0246C987.529 25.5095 989.925 30.4294 993.731 33.8008C993.731 33.8008 996.926 36.7419 1003.09 36.4119C1003.09 36.4119 1005.1 36.1278 1006 35.2443C1006.92 34.3263 1008.5 34.1949 1009.07 35.397C1009.07 35.397 1010.33 37.7502 1005.39 38.2872L1005.1 38.3135L1004.45 38.3693L1005.94 38.4334C1011.42 38.4334 1016.34 36.0342 1019.71 32.2309C1019.71 32.2309 1022.65 29.0385 1022.32 22.8705C1022.32 22.8705 1022.04 20.8605 1021.15 19.9655C1020.24 19.041 1020.1 17.4612 1021.31 16.8897C1021.31 16.8897 1023.66 15.6335 1024.2 20.5748L1024.22 20.8605L1024.28 21.5124L1024.34 20.023C1024.34 14.5447 1021.94 9.62312 1018.14 6.2501ZM1014.61 31.1076C1013.83 31.4459 1012.93 31.7366 1011.47 31.7366C1011.47 31.7366 1005.2 30.8465 1005.54 24.7327C1005.54 24.7327 1005.83 20.4467 1009.75 18.146C1009.75 18.146 1009.49 17.9358 1009.46 17.517L1004.05 20.8096C1004.05 20.8096 1004.41 26.9168 1001.31 30.1388C1000.87 30.6002 1000.29 30.9434 999.767 31.3178C999.399 31.5806 998.938 31.6496 998.616 31.7366C998.197 31.8433 997.91 31.7859 997.311 31.7859C997.311 31.7859 995.793 31.8384 994.956 29.9828C994.956 29.9828 993.493 27.0055 996.47 23.9478C996.47 23.9478 998.197 21.8047 1002.56 20.3432L1002.64 19.087C1002.64 19.087 1001.07 20.2398 1000.05 20.0263C999.434 19.9015 998.013 19.8177 997.624 17.4645C997.624 17.4645 995.189 16.6549 995.033 14.1473C995.033 14.1473 995.007 12.6611 995.76 11.9911C996.961 10.9319 996.376 12.6579 996.376 12.6579C996.329 13.7285 996.444 15.5431 997.701 15.8749C997.701 15.8749 997.624 13.3886 998.954 11.3277C998.954 11.3277 1001.31 7.87421 1003.97 9.13211C1003.97 9.13211 1006.48 11.0108 1002.95 14.9339C1002.95 14.9339 1001.44 16.9965 999.347 17.4415C999.347 17.4415 999.97 20.0279 1002.95 16.9718C1002.95 16.9718 1003.74 13.3656 1005.94 14.2278C1005.94 14.2278 1007.66 15.4036 1003.97 17.9095L1003.89 19.2446L1008.91 16.1606C1008.91 16.1606 1008.65 13.497 1009.38 11.2472C1009.38 11.2472 1010.64 8.34551 1013.46 8.81846C1013.46 8.81846 1016.86 10.4114 1013.62 14.3049C1013.62 14.3049 1011.78 16.2673 1010.85 16.425C1010.85 16.425 1011 17.1541 1011.37 17.4169C1011.37 17.4169 1015.42 16.581 1015.1 18.1493C1015.1 18.1493 1015.26 20.266 1010.87 19.4811C1010.87 19.4811 1007.74 22.0691 1008.13 24.8904C1008.13 24.8904 1007.81 28.7347 1011.65 29.2815C1011.65 29.2815 1015.58 29.518 1015.42 26.0678C1015.42 26.0678 1015.34 23.1677 1012.99 23.4009C1012.99 23.4009 1010.79 24.112 1012.52 26.0678C1012.52 26.0678 1013.35 26.6179 1012.6 27.4801C1012.6 27.4801 1011.73 28.0269 1010.86 27.1911C1010.42 26.7625 1009.94 26.058 1009.78 24.6556C1009.78 24.6556 1009.54 21.1298 1013.77 21.2842C1013.77 21.2842 1017.59 21.7046 1017.69 26.1466C1017.69 26.1417 1017.99 29.6461 1014.61 31.1076Z" fill="white"/>
</g>
<path d="M1135.36 36.5217H1143.23V3.47827H1135.36V36.5217ZM1121.49 27.1198C1121.49 28.3013 1120.54 29.2562 1119.38 29.2562H1114.79C1113.63 29.2562 1112.68 28.3013 1112.68 27.1198C1112.68 26.6776 1112.68 13.7887 1112.68 13.7887H1104.81V27.7867C1104.81 33.5085 1108.43 36.5217 1113.78 36.5217H1121.48C1126.41 36.5217 1129.36 32.9345 1129.36 27.7867V13.7887H1121.48C1121.49 13.7887 1121.49 26.6776 1121.49 27.1198ZM1165.9 13.7887C1165.9 13.7887 1165.9 26.6776 1165.9 27.1198C1165.9 28.3013 1164.95 29.2562 1163.79 29.2562H1159.21C1158.04 29.2562 1157.1 28.3013 1157.1 27.1198C1157.1 26.6776 1157.1 13.7887 1157.1 13.7887H1149.22V27.7867C1149.22 33.5085 1152.84 36.5217 1158.19 36.5217H1165.9C1170.82 36.5217 1173.77 32.9345 1173.77 27.7867V13.7887H1165.9ZM1090.22 13.7887C1090.22 13.7887 1086.12 13.7887 1085.17 13.7887C1083.4 13.7887 1082.51 14.2736 1082.51 14.2736V3.47827H1074.64V36.5217H1082.51V23.1869C1082.51 22.0073 1083.46 21.0524 1084.62 21.0524H1089.2C1090.37 21.0524 1091.31 22.0073 1091.31 23.1869V36.5217H1099.18V22.1541C1099.18 16.1146 1095.2 13.7887 1090.22 13.7887Z" fill="white"/>
<path fill-rule="evenodd" clip-rule="evenodd" d="M1328.48 24.1668H1314.41L1317.51 29.0082H1331.76L1334.69 33.8437H1340.91L1324.23 7.79803C1323.53 6.77125 1322.32 6.15637 1321.03 6.15637C1319.7 6.15637 1318.49 6.78912 1317.77 7.83979L1301.16 33.8437H1307.37L1321.03 12.1977L1328.48 24.1668ZM1378.97 6.41306V29.0023H1403.55L1400.44 33.8377H1376.39C1375.64 33.8377 1374.96 33.5512 1374.46 33.0497C1373.96 32.5483 1373.7 31.8916 1373.7 31.211V6.41306H1378.97ZM1300.99 15.6959C1300.99 20.8179 1296.83 24.9548 1291.71 24.9548V24.9429H1289.31L1299.9 33.8317H1292.24L1276.49 20.1075L1291.36 20.1313C1293.82 20.1313 1295.79 18.1434 1295.79 15.6899C1295.79 13.2423 1293.82 11.2485 1291.36 11.2485H1273.91V33.8377H1268.64V6.41306H1291.71C1296.83 6.41306 1300.99 10.5739 1300.99 15.6959ZM1222.47 20.1373C1222.47 27.7069 1228.61 33.8377 1236.18 33.8377H1252.12C1259.69 33.8377 1265.83 27.7128 1265.83 20.1373C1265.83 12.5618 1259.69 6.41306 1252.12 6.41306H1236.18C1228.61 6.41306 1222.47 12.5618 1222.47 20.1373ZM1260.64 20.1373C1260.64 25.0384 1256.67 29.0023 1251.76 29.0023H1236.53C1231.62 29.0023 1227.65 25.0384 1227.65 20.1373C1227.65 15.2303 1231.62 11.2485 1236.53 11.2485H1251.76C1256.67 11.2485 1260.64 15.2362 1260.64 20.1373ZM1338.19 20.1373C1338.19 27.7069 1344.34 33.8377 1351.92 33.8377H1368.18L1371.29 29.0023H1352.27C1347.36 29.0023 1343.38 25.0384 1343.38 20.1373C1343.38 15.2303 1347.37 11.2485 1352.27 11.2485H1367.76L1370.85 6.41306H1351.92C1344.34 6.41306 1338.19 12.5618 1338.19 20.1373ZM1407.88 22.5431C1408.94 26.2861 1412.37 29.0023 1416.42 29.0023H1435.44L1432.33 33.8377H1416.07C1408.49 33.8377 1402.34 27.7128 1402.34 20.1373C1402.34 12.5618 1408.49 6.41306 1416.07 6.41306H1435.02L1431.89 11.2485H1416.42C1412.37 11.2485 1408.94 13.9886 1407.88 17.7077H1433.54L1430.43 22.5431H1407.88ZM1440.25 6.92051C1438.92 6.92051 1437.85 7.9891 1437.85 9.32631C1437.85 10.6814 1438.92 11.7559 1440.25 11.7559C1441.61 11.7559 1442.68 10.6814 1442.68 9.32631C1442.68 7.99507 1441.61 6.92051 1440.25 6.92051ZM1443.34 9.35017C1443.34 11.0575 1441.96 12.4365 1440.25 12.4365C1438.57 12.4365 1437.19 11.0575 1437.19 9.35017C1437.19 7.64285 1438.57 6.26387 1440.25 6.26387C1441.96 6.26387 1443.34 7.64285 1443.34 9.35017ZM1440.87 7.61895C1440.65 7.53538 1440.45 7.51151 1439.97 7.51151H1439.09V10.968H1439.77V9.65463H1440.26L1440.96 10.968H1441.72L1440.93 9.54718C1440.99 9.51505 1441.02 9.49642 1441.05 9.4804C1441.06 9.47261 1441.07 9.46543 1441.09 9.45762C1441.4 9.26062 1441.48 8.99796 1441.51 8.86663C1441.55 8.7353 1441.55 8.62189 1441.55 8.5801C1441.55 8.36519 1441.48 7.81595 1440.87 7.61895ZM1440.28 9.08071C1440.26 9.08288 1440.23 9.08507 1440.21 9.08751H1439.77V8.07863H1439.97H1439.97C1440.3 8.07863 1440.45 8.07863 1440.6 8.14429C1440.76 8.23383 1440.87 8.38905 1440.87 8.56217C1440.87 8.69351 1440.84 8.77709 1440.78 8.86663C1440.66 9.04354 1440.47 9.06158 1440.28 9.08071Z" fill="white"/>
<path fill-rule="evenodd" clip-rule="evenodd" d="M1557.88 4.53941C1557.58 4.48778 1557.29 4.43616 1557 4.38153H1553.34C1553.29 4.39331 1553.24 4.40704 1553.19 4.42078L1553.19 4.42079L1553.19 4.4208C1553.09 4.44866 1552.99 4.4766 1552.89 4.48855C1550.14 4.82208 1547.56 5.61401 1545.39 7.3994C1542.89 9.45056 1541.69 12.0921 1542.04 15.3436C1542.27 17.516 1543.5 19.1498 1545.2 20.3752C1546.06 20.9914 1546.98 21.5127 1547.91 22.0343C1548.42 22.3219 1548.93 22.6096 1549.42 22.9133C1549.62 23.0305 1549.81 23.1456 1550.01 23.2609C1550.72 23.6843 1551.44 24.1096 1552.06 24.6451C1553.26 25.6814 1553.13 27.3402 1551.81 28.2231C1551.21 28.6297 1550.48 28.9454 1549.76 29.0792C1547.01 29.5947 1544.35 29.122 1541.78 28.0857C1541.42 27.9388 1541.06 27.7778 1540.69 27.613C1540.51 27.5356 1540.34 27.4574 1540.16 27.3794C1539.68 29.6196 1539.22 31.801 1538.75 33.977C1538.78 33.9989 1538.81 34.0189 1538.84 34.0369C1538.89 34.0686 1538.93 34.0937 1538.97 34.1108L1538.99 34.1207C1539.2 34.2066 1539.41 34.2919 1539.62 34.3623C1542.91 35.4431 1546.28 35.8302 1549.73 35.5091C1552.19 35.279 1554.56 34.6601 1556.65 33.2725C1559.98 31.0661 1561.44 27.9466 1560.95 23.987C1560.67 21.7486 1559.34 20.0916 1557.52 18.8876C1556.58 18.2689 1555.6 17.7195 1554.62 17.1697C1553.98 16.8113 1553.34 16.4528 1552.71 16.0749C1552.01 15.654 1551.31 15.1956 1550.72 14.6391C1549.86 13.8311 1549.87 12.7235 1550.77 11.9547C1551.29 11.5053 1551.97 11.1503 1552.63 10.9648C1554.27 10.51 1555.94 10.6474 1557.58 11.0076C1558.4 11.1898 1559.21 11.4417 1560.03 11.6975L1560.03 11.6976C1560.4 11.8124 1560.77 11.9281 1561.15 12.0386L1561.65 9.72519C1561.93 8.39248 1562.22 7.04067 1562.51 5.66751C1562.22 5.58499 1561.94 5.5007 1561.66 5.4177L1561.66 5.41765C1561.06 5.23696 1560.47 5.06241 1559.87 4.92553C1559.22 4.77334 1558.55 4.65635 1557.88 4.53941ZM1581.42 35.1131H1588.69C1588.69 35.0417 1588.69 34.9704 1588.7 34.8973C1588.62 34.5784 1588.55 34.26 1588.47 33.9415L1588.47 33.9401L1588.47 33.9387L1588.47 33.9378L1588.47 33.9378C1588.31 33.2384 1588.14 32.5392 1587.99 31.8366C1586.95 26.838 1585.9 21.8395 1584.86 16.8409C1584.24 13.8436 1583.61 10.8462 1582.99 7.8488C1582.86 7.24139 1582.73 6.63468 1582.6 6.02477L1582.6 6.02092L1582.6 6.01938C1582.52 5.65321 1582.44 5.28587 1582.36 4.91654H1575.97C1574.07 4.91654 1572.97 5.65139 1572.24 7.40289L1569.24 14.5465L1569.16 14.7443L1569.02 15.0774C1566.7 20.6106 1564.38 26.1434 1562.06 31.6761C1561.71 32.5273 1561.35 33.3806 1560.99 34.2572L1560.98 34.2744C1560.87 34.5566 1560.75 34.8413 1560.63 35.1291L1561.27 35.1293L1562.18 35.1297C1564.34 35.1308 1566.47 35.1318 1568.6 35.1131C1568.73 35.1113 1568.94 34.8901 1569 34.7296C1569.45 33.5435 1569.89 32.3521 1570.29 31.1499C1570.42 30.7486 1570.6 30.6023 1571.04 30.6059C1573.96 30.6291 1576.88 30.638 1579.79 30.6005C1580.38 30.5916 1580.55 30.795 1580.64 31.3193C1580.8 32.2119 1580.99 33.0992 1581.18 33.9943L1581.18 33.9949L1581.18 33.9952L1581.18 33.9962C1581.26 34.3668 1581.34 34.7388 1581.42 35.1131ZM1578.73 22.2673L1579.17 24.3847H1572.75L1574.13 20.6005L1574.14 20.5703C1575.02 18.1432 1575.89 15.728 1576.77 13.312C1576.78 13.3147 1576.8 13.3178 1576.82 13.3209C1576.83 13.323 1576.84 13.325 1576.85 13.327C1576.85 13.328 1576.86 13.3289 1576.86 13.3298C1577.48 16.3007 1578.1 19.2704 1578.73 22.2673ZM1528.7 4.94335C1528.57 5.26142 1528.44 5.57481 1528.31 5.88499C1528.04 6.5332 1527.77 7.16736 1527.51 7.80069L1525.56 12.451L1525.56 12.4535C1522.46 19.8359 1519.37 27.2176 1516.29 34.6066C1516.11 35.0329 1515.89 35.1452 1515.46 35.1417C1513.09 35.1221 1510.73 35.1149 1508.37 35.147C1507.86 35.1542 1507.7 34.9776 1507.59 34.5281C1506.83 31.5677 1506.06 28.6084 1505.3 25.649L1505.3 25.6481C1504.05 20.8017 1502.8 15.9552 1501.56 11.1039C1501.2 9.66992 1500.47 8.69072 1499.11 8.08964C1496.92 7.12649 1494.65 6.4505 1492.34 5.90115C1492.28 5.88862 1492.23 5.87564 1492.18 5.86289L1492.18 5.86289C1492.13 5.85023 1492.08 5.83779 1492.04 5.82624C1492.05 4.92016 1492.05 4.92016 1492.91 4.92016C1494.29 4.92016 1495.67 4.91996 1497.04 4.91976H1497.05H1497.05C1499.8 4.91937 1502.56 4.91897 1505.32 4.92016C1507.28 4.92016 1508.7 6.05989 1509.07 8.00224C1509.79 11.7767 1510.5 15.5537 1511.21 19.3309L1511.21 19.3327C1511.54 21.056 1511.86 22.7793 1512.18 24.5024C1512.22 24.676 1512.25 24.8487 1512.3 25.0585C1512.31 25.1398 1512.33 25.2265 1512.35 25.3211C1512.39 25.2513 1512.42 25.192 1512.45 25.1391C1512.51 25.0394 1512.55 24.9628 1512.58 24.8823L1513.6 22.3102L1513.6 22.3086C1515.83 16.6674 1518.06 11.0268 1520.28 5.38212C1520.41 5.02718 1520.59 4.90589 1520.97 4.90946C1522.67 4.92336 1524.37 4.92204 1526.07 4.92072C1526.77 4.92018 1527.47 4.91964 1528.17 4.92016C1528.26 4.92016 1528.36 4.92551 1528.47 4.9317C1528.54 4.93562 1528.61 4.93989 1528.7 4.94335ZM1531.92 5.42417C1529.8 15.3186 1527.69 25.1902 1525.56 35.1311C1525.82 35.1311 1526.01 35.1311 1526.21 35.1328C1526.8 35.1328 1527.39 35.131 1527.98 35.1291C1529.54 35.1241 1531.09 35.1191 1532.65 35.1489C1533.25 35.1596 1533.46 34.9777 1533.58 34.3998C1535.05 27.4288 1536.54 20.4616 1538.03 13.4951C1538.32 12.1588 1538.61 10.8225 1538.89 9.48629C1539.09 8.54225 1539.29 7.59821 1539.5 6.64708C1539.62 6.08513 1539.74 5.52071 1539.86 4.95235H1532.02L1531.92 5.42417Z" fill="white"/>
</g>
<defs>
<clipPath id="clip0">
<rect width="153.043" height="34.7826" fill="white" transform="translate(784.207 2.6087)"/>
</clipPath>
<clipPath id="clip1">
<rect width="40" height="40" fill="white" transform="translate(985.945)"/>
</clipPath>
</defs>
</svg>
