<svg width="71" height="66" viewBox="0 0 71 66" fill="none" xmlns="http://www.w3.org/2000/svg">
<path fill-rule="evenodd" clip-rule="evenodd" d="M49.875 14.0452H2.625C1.18125 14.0452 0 15.2218 0 16.6598V53.2649C0 54.703 1.18125 55.8796 2.625 55.8796H49.875C51.3187 55.8796 52.5 54.703 52.5 53.2649V16.6598C52.5 15.2218 51.3187 14.0452 49.875 14.0452Z" fill="#F4F1FF"/>
<mask id="mask0" mask-type="alpha" maskUnits="userSpaceOnUse" x="0" y="14" width="53" height="42">
<path fill-rule="evenodd" clip-rule="evenodd" d="M49.875 14.0452H2.625C1.18125 14.0452 0 15.2218 0 16.6598V53.2649C0 54.703 1.18125 55.8796 2.625 55.8796H49.875C51.3187 55.8796 52.5 54.703 52.5 53.2649V16.6598C52.5 15.2218 51.3187 14.0452 49.875 14.0452Z" fill="#DDD9EE"/>
</mask>
<g mask="url(#mask0)">
<path d="M17.4925 59.4973C13.4921 59.4973 9.49164 59.5117 5.49265 59.4843C4.73293 59.4786 3.9487 59.3966 3.2207 59.1939C0.664747 58.4837 -0.726393 55.3264 0.387961 52.9239C0.99199 51.6213 2.00111 50.6782 3.065 49.7738C4.96791 48.1578 7.18941 47.1169 9.49452 46.2284C10.2773 45.9264 11.0644 45.6317 11.8429 45.3168C12.0389 45.2378 12.222 45.1098 12.3864 44.9747C12.6761 44.736 12.7799 44.4139 12.6141 44.0732C12.4325 43.6979 12.2307 43.3241 11.9798 42.9934C11.0414 41.757 10.1418 40.4961 9.63724 39.0152C8.55604 35.8464 8.75931 32.7567 10.5267 29.8956C12.0361 27.4515 14.3498 26.2409 17.2316 26.2481C20.1508 26.2553 22.5611 27.3595 24.2464 29.8079C25.0695 31.0041 25.5034 32.357 25.6808 33.7919C26.0844 37.0441 25.2036 39.9267 23.1724 42.4831C22.8668 42.8669 22.5712 43.2637 22.3161 43.6807C21.9643 44.2543 22.107 44.8079 22.6837 45.1601C23.0412 45.3772 23.4247 45.5526 23.8009 45.7395C26.2271 46.9487 28.6721 48.1204 31.0723 49.377C32.6826 50.2195 33.7796 51.6113 34.4904 53.2417C35.1924 54.8563 34.708 56.363 33.6931 57.7188C32.8109 58.8963 31.5884 59.4513 30.1425 59.4585C25.9258 59.4786 21.7092 59.4656 17.4939 59.4656C17.4925 59.4771 17.4925 59.4872 17.4925 59.4973Z" fill="#2B2165"/>
</g>
<g filter="url(#filter0_d)">
<path d="M28.882 27.6672C29.0519 29.2518 30.3073 30.4898 31.8629 30.6011C31.9916 30.6104 32.1195 30.6197 32.2473 30.6281C33.1958 30.6939 33.9333 31.4993 33.9333 32.4716V36.1469C33.9333 37.3832 35.3173 38.0849 36.279 37.3359C38.0342 35.9689 40.3693 33.9356 41.802 31.8273C42.141 31.328 42.701 31.0371 43.2958 31.0405C47.707 31.0632 52.118 30.9182 56.5292 30.6011C57.7589 30.5134 58.8032 29.7232 59.2683 28.6117C59.3921 28.3199 59.4745 28.0045 59.51 27.6748C60.1633 21.5733 60.1633 15.471 59.51 9.36857C59.3402 7.78568 58.0839 6.55352 56.5308 6.44217C49.9595 5.97075 43.3891 5.87626 36.8185 6.15882C35.1673 6.22879 33.5151 6.32327 31.8639 6.44217C30.3099 6.55343 29.0529 7.78558 28.883 9.36857C28.2296 15.4684 28.2296 21.5674 28.882 27.6672Z" fill="#26C6CA"/>
</g>
<defs>
<filter id="filter0_d" x="18.3945" y="0" width="51.6071" height="51.644" filterUnits="userSpaceOnUse" color-interpolation-filters="sRGB">
<feFlood flood-opacity="0" result="BackgroundImageFix"/>
<feColorMatrix in="SourceAlpha" type="matrix" values="0 0 0 0 0 0 0 0 0 0 0 0 0 0 0 0 0 0 127 0"/>
<feOffset dy="4"/>
<feGaussianBlur stdDeviation="5"/>
<feColorMatrix type="matrix" values="0 0 0 0 0 0 0 0 0 0 0 0 0 0 0 0 0 0 0.05 0"/>
<feBlend mode="normal" in2="BackgroundImageFix" result="effect1_dropShadow"/>
<feBlend mode="normal" in="SourceGraphic" in2="effect1_dropShadow" result="shape"/>
</filter>
</defs>
</svg>
