<svg xmlns="http://www.w3.org/2000/svg" width="121" height="331" fill="none" viewBox="0 0 121 331"><ellipse cx="28.907" cy="34.151" fill="#6466EB" opacity=".2" rx="28.907" ry="28.897"/><path fill="#27AE60" d="M15.0678 35.9748C15.3503 38.6057 17.4378 40.6612 20.0245 40.8461C20.2386 40.8616 20.4512 40.8769 20.6637 40.891C22.241 41.0002 23.4673 42.3374 23.4673 43.9518V50.0539C23.4673 52.1066 25.7687 53.2717 27.3679 52.0282C30.2865 49.7585 34.1694 46.3825 36.5518 42.882C37.1155 42.053 38.0468 41.57 39.0358 41.5756C46.3709 41.6134 53.7059 41.3726 61.041 40.8461C63.0859 40.7005 64.8224 39.3885 65.5959 37.543C65.8017 37.0586 65.9387 36.5349 65.9978 35.9875C67.0841 25.8569 67.0841 15.725 65.9978 5.59296C65.7153 2.96483 63.6263 0.919037 61.0438 0.73415C50.1166 -0.0485728 39.1909 -0.205449 28.265 0.263691C25.5193 0.379863 22.7719 0.536739 20.0262 0.73415C17.4421 0.918872 15.3519 2.96466 15.0694 5.59296C13.9829 15.7207 13.983 25.8472 15.0678 35.9748Z"/><ellipse cx="28.907" cy="302.103" fill="#6466EB" opacity=".2" rx="28.907" ry="28.897"/><path fill="#F26516" d="M61.0654 263.316C61.1154 262.83 61.1011 262.387 61.2153 261.982C61.5865 260.667 62.677 260.042 63.8013 260.072C65.1452 260.108 66.116 261.04 66.3052 262.345C66.3391 262.578 66.3677 262.816 66.3677 263.051C66.3713 276.819 66.3713 290.586 66.3695 304.351C66.3695 305.779 65.7216 306.796 64.5741 307.184C62.9001 307.748 61.1725 306.554 61.1172 304.792C61.11 304.571 61.1154 304.348 61.1154 304.083C57.5657 303.098 54.0285 302.115 50.4555 301.122C49.6828 305.722 47.3127 309.192 43.1188 311.268C40.0241 312.799 36.7618 313.017 33.4744 311.942C29.8015 310.741 27.1085 308.357 25.5148 304.835C23.93 301.331 23.9407 297.77 25.4523 294.188C23.2768 293.577 21.1298 292.976 19.015 292.383C18.733 292.765 18.5063 293.167 18.1905 293.479C17.473 294.188 16.5878 294.366 15.6437 294.05C14.6854 293.731 14.075 293.058 13.8948 292.046C13.8394 291.741 13.8162 291.426 13.8162 291.118C13.8127 286.131 13.8109 281.14 13.8144 276.149C13.8162 275.005 14.1964 274.054 15.2672 273.491C16.5111 272.838 18.0513 273.315 18.7134 274.555C18.7901 274.696 18.8561 274.844 18.9436 275.019C32.9925 271.116 47.0361 267.214 61.0654 263.316ZM30.6278 295.619C29.7248 297.351 29.3928 299.073 29.7355 300.938C30.5225 305.236 34.9717 308.164 39.2068 307.128C42.6119 306.297 44.9159 303.635 45.2907 300.135C45.3282 299.778 45.2514 299.664 44.9052 299.569C40.9664 298.491 37.033 297.393 33.0978 296.301C32.2769 296.074 31.4559 295.848 30.6278 295.619Z"/><ellipse cx="72.118" cy="157.619" fill="#6466EB" opacity=".2" rx="28.907" ry="28.897"/><path fill="#EAAF23" d="M116.201 118.214H65.814V159.709L70.6127 173.381H121L116.201 159.709V118.214Z"/><rect width="31.535" height="5.254" x="74.953" y="128.722" fill="#fff"/><rect width="28.907" height="5.254" x="74.953" y="139.23" fill="#fff"/><rect width="21.023" height="5.254" x="74.953" y="149.738" fill="#fff"/></svg>