<svg xmlns="http://www.w3.org/2000/svg" width="507" height="73" fill="none" viewBox="0 0 507 73"><path fill="#fff" d="M79.4297 16.7945H85.3974V23.6628C88.9079 18.0971 92.5353 15.8472 98.6201 15.8472C108.683 15.8472 115.704 23.8997 115.704 35.2679C115.704 47.1098 108.683 55.2808 98.6201 55.2808C95.8117 55.2808 93.2374 54.5703 90.6631 53.2676C88.4398 52.0834 87.3867 51.1361 85.3974 48.4124V71.9779H79.4297V16.7945ZM97.6839 21.4129C90.429 21.4129 85.5144 27.3338 85.5144 36.2153C85.5144 44.5046 90.312 49.9519 97.4499 49.9519C104.588 49.9519 109.268 44.1494 109.268 35.5048C109.268 31.1232 108.215 27.6891 106.109 25.3207C104.003 22.9523 100.843 21.4129 97.6839 21.4129ZM126.704 54.5702H120.619V0.21582H126.704V54.5702ZM162.042 23.3076V17.1498H168.01V54.4518H162.042V47.2283C158.414 52.794 154.319 55.2808 148.819 55.2808C138.756 55.2808 131.735 47.2283 131.735 35.86C131.735 24.4918 138.99 16.2024 149.053 16.2024C154.436 16.3208 158.414 18.4524 162.042 23.3076ZM149.989 21.4129C146.011 21.4129 143.203 22.8339 141.096 25.9128C139.224 28.6364 138.054 32.189 138.054 35.86C138.054 43.9125 143.086 49.9519 149.755 49.9519C156.659 49.9519 162.276 43.3204 162.276 35.2679C162.276 26.9786 157.244 21.4129 149.989 21.4129ZM200.423 45.6888L204.167 49.9519C200.072 53.7413 196.093 55.3992 190.71 55.3992C180.296 55.3992 172.924 47.3467 172.924 35.9784C172.924 24.3733 180.413 16.3208 191.061 16.3208C196.327 16.3208 200.54 18.0971 204.284 21.8865L200.423 25.7944C197.614 23.1891 194.572 21.8865 191.178 21.8865C184.041 21.8865 179.009 27.5707 179.009 35.6232C179.009 43.9125 184.041 49.5966 191.061 49.5966C194.689 49.7151 197.497 48.5309 200.423 45.6888ZM239.856 37.8731H209.55C209.901 41.0705 210.369 42.6099 211.89 44.623C214.23 47.9388 217.741 49.7151 221.719 49.7151C226.166 49.7151 230.495 47.2283 232.602 43.3204L237.867 45.3335C234.825 51.6098 228.623 55.3992 221.719 55.3992C210.954 55.3992 203.231 47.3467 203.231 35.9784C203.231 24.4918 210.837 16.3208 221.485 16.3208C232.017 16.3208 239.973 24.4918 239.973 35.3863C239.973 35.86 239.973 36.9258 239.856 37.8731ZM210.018 33.1364H233.889C233.655 30.2943 233.07 28.6364 231.9 26.8601C229.559 23.7812 225.932 21.8865 221.953 21.8865C217.975 21.8865 214.347 23.7812 212.241 26.9786C210.954 28.6364 210.486 30.1759 210.018 33.1364ZM244.42 16.7945H250.388V22.005C253.196 17.7419 256.239 15.9656 260.802 15.9656C265.834 15.9656 268.993 18.0971 270.631 22.8339C273.323 18.0971 276.716 15.9656 282.216 15.9656C286.428 15.9656 289.588 17.3866 291.46 19.9918C293.215 22.3602 293.683 24.4918 293.683 30.4127V54.3334H287.715V31.8338C287.715 27.3338 287.598 26.268 286.662 24.7286C285.609 22.8339 283.152 21.5313 280.343 21.5313C275.078 21.5313 272.152 25.2023 272.152 31.8338V54.3334H266.185V31.9522C266.185 28.2812 265.834 26.3865 265.015 24.847C263.961 22.7155 261.738 21.6497 259.047 21.6497C253.781 21.6497 250.622 25.5575 250.622 32.0706V54.4518H244.654V16.7945H244.42ZM335.223 37.8731H304.917C305.268 41.0705 305.736 42.6099 307.257 44.623C309.597 47.9388 313.108 49.7151 317.086 49.7151C321.533 49.7151 325.862 47.2283 327.968 43.3204L333.234 45.3335C330.192 51.6098 323.99 55.3992 317.086 55.3992C306.321 55.3992 298.598 47.3467 298.598 35.9784C298.598 24.4918 306.204 16.3208 316.852 16.3208C327.383 16.3208 335.34 24.4918 335.34 35.3863C335.34 35.86 335.34 36.9258 335.223 37.8731ZM304.682 33.1364H328.553C328.319 30.2943 327.734 28.6364 326.564 26.8601C324.341 23.7812 320.596 21.8865 316.618 21.8865C312.639 21.8865 309.012 23.7812 306.906 26.9786C305.619 28.6364 305.151 30.1759 304.682 33.1364ZM339.904 16.7945H345.872V22.1234C349.031 17.7419 352.19 15.9656 356.754 15.9656C360.03 15.9656 363.073 17.1498 365.179 19.0445C367.519 21.2944 368.221 23.8997 368.221 28.9917V54.215H362.254V30.4127C362.254 27.097 361.903 25.3207 360.966 24.0181C359.913 22.4786 357.69 21.5313 355.233 21.5313C352.541 21.5313 350.084 22.5971 348.329 24.7286C346.574 26.6233 345.989 28.518 345.989 31.5969V54.3334H340.021V16.7945H339.904ZM382.029 22.5971V46.9914C382.146 48.8861 382.614 49.2414 384.837 49.2414H387.646V54.5702H382.029C377.7 54.4518 376.061 52.9124 376.061 48.7677V22.5971H371.03V17.1498H376.061V5.42627H382.146V17.1498H387.646V22.5971H382.029Z"/><path fill="url(#paint0_linear)" d="M43.1783 57.8872L35.6894 50.3084L35.8064 50.1899C45.7526 40.9532 47.6249 35.506 47.6249 30.0587C47.6249 19.2825 39.1998 10.6379 28.7856 10.6379C18.3713 10.6379 9.94623 19.4009 9.94623 30.0587C9.94623 35.506 11.8185 41.0717 21.7647 50.1899C23.7539 52.0846 26.0942 54.3346 28.7856 57.1767L36.0404 64.5187L36.1575 64.6371C33.1151 67.5976 30.6578 70.0844 28.7856 72.2159C26.2112 69.3739 22.7008 65.8213 18.0202 61.4398C2.80835 47.2295 0 38.7033 0 30.2955C0 13.7168 12.8716 0.335449 28.7856 0.335449C44.6995 0.335449 57.5711 13.7168 57.5711 30.2955C57.5711 37.9928 55.1138 45.8084 43.1783 57.8872ZM28.9026 20.5851C34.0512 20.5851 38.1467 24.8482 38.1467 30.0587C38.1467 35.2691 29.7217 42.3743 28.9026 43.2032C28.0835 42.3743 19.6584 35.506 19.6584 30.0587C19.6584 24.8482 23.8709 20.5851 28.9026 20.5851Z"/><path fill="url(#paint1_linear)" fill-rule="evenodd" d="M471.894 45.6897C473.649 48.5318 475.872 50.7817 478.798 52.4396C481.723 53.979 484.883 54.808 488.276 54.9264C491.669 54.9264 494.829 54.0975 497.754 52.4396C500.562 50.9001 502.903 48.5318 504.541 45.6897C506.179 42.8476 506.998 39.5319 506.998 35.8609C506.998 32.1899 506.179 28.8742 504.541 26.0321C502.903 23.19 500.562 20.9401 497.754 19.2822C494.946 17.6243 491.786 16.7954 488.276 16.7954C484.883 16.7954 481.723 17.6243 478.798 19.2822C475.872 20.8217 473.532 23.19 471.894 26.0321C470.139 28.9926 469.32 32.1899 469.32 35.8609C469.32 39.5319 470.256 42.8476 471.894 45.6897ZM498.105 42.2555C497.169 44.1502 495.765 45.5713 494.127 46.637C492.488 47.7028 490.499 48.1765 488.276 48.1765C486.053 48.1765 484.18 47.7028 482.425 46.637C480.67 45.5713 479.383 44.1502 478.447 42.2555C477.511 40.4792 477.043 38.2293 477.043 35.7425C477.043 33.2557 477.511 31.1241 478.447 29.2294C479.383 27.4531 480.67 25.9137 482.425 24.9663C484.063 23.9006 486.053 23.4269 488.276 23.4269C490.499 23.4269 492.488 24.019 494.127 24.9663C495.882 25.9137 497.169 27.3347 498.105 29.2294C499.041 31.1241 499.509 33.2557 499.509 35.7425C499.509 38.2293 499.041 40.3608 498.105 42.2555ZM456.448 54.4526L448.374 39.887H444.864V54.4526H437.492V17.1505H451.3C454.108 17.1505 456.565 17.6242 458.555 18.69C460.544 19.7558 462.065 21.0584 463.118 22.8347C464.171 24.611 464.639 26.5057 464.639 28.6372C464.639 31.124 463.937 33.2556 462.533 35.2687C461.129 37.2818 459.023 38.5844 456.214 39.2949L464.99 54.4526H456.448ZM444.864 34.3213H451.066C453.055 34.3213 454.576 33.8477 455.512 32.9003C456.448 31.9529 457.033 30.5319 457.033 28.874C457.033 27.2162 456.565 25.7952 455.512 24.8478C454.576 23.9004 453.055 23.4268 451.066 23.4268H444.864V34.3213ZM430.822 34.3215C429.886 36.0978 428.482 37.5189 426.492 38.5846C424.503 39.6504 422.046 40.2425 419.003 40.2425H412.802V54.5712H405.43V17.2692H419.003C421.812 17.2692 424.269 17.7428 426.258 18.8086C428.248 19.756 429.769 21.177 430.822 22.9533C431.875 24.7296 432.343 26.6243 432.343 28.8742C432.226 30.769 431.758 32.6637 430.822 34.3215ZM423.099 32.7821C424.035 31.8347 424.62 30.5321 424.62 28.7558C424.62 25.0848 422.631 23.3085 418.652 23.3085H412.802V34.0847H418.652C420.642 34.0847 422.163 33.611 423.099 32.7821Z" clip-rule="evenodd"/><defs><linearGradient id="paint0_linear" x1="7.292" x2="149.363" y1="8.961" y2="97.167" gradientUnits="userSpaceOnUse"><stop stop-color="#F5D114"/><stop offset="1" stop-color="#D0990D"/></linearGradient><linearGradient id="paint1_linear" x1="418.295" x2="484.271" y1="21.371" y2="157.598" gradientUnits="userSpaceOnUse"><stop stop-color="#F5D114"/><stop offset="1" stop-color="#D0990D"/></linearGradient></defs></svg>