<svg xmlns="http://www.w3.org/2000/svg" width="390" height="54" fill="none" viewBox="0 0 390 54"><path fill="#384957" d="M54.8164 12.4343H59.3592V17.5857C62.0314 13.4113 64.7928 11.7238 69.4246 11.7238C77.085 11.7238 82.4295 17.7633 82.4295 26.2897C82.4295 35.1713 77.085 41.2997 69.4246 41.2997C67.2868 41.2997 65.3272 40.7668 63.3676 39.7898C61.6751 38.9016 60.8735 38.1911 59.3592 36.1483V53.8228H54.8164V12.4343ZM68.712 15.8981C63.1894 15.8981 59.4483 20.339 59.4483 27.0002C59.4483 33.2174 63.1003 37.3029 68.5339 37.3029C73.9674 37.3029 77.5304 32.9509 77.5304 26.4673C77.5304 23.1811 76.7287 20.6054 75.1254 18.8291C73.5221 17.0528 71.1171 15.8981 68.712 15.8981ZM90.8025 40.7668H86.1706V0H90.8025V40.7668ZM117.703 17.3192V12.7008H122.246V40.6779H117.703V35.2601C114.942 39.4345 111.824 41.2997 107.638 41.2997C99.9772 41.2997 94.6327 35.2601 94.6327 26.7338C94.6327 18.2074 100.155 11.9902 107.816 11.9902C111.913 12.079 114.942 13.6777 117.703 17.3192ZM108.528 15.8981C105.5 15.8981 103.362 16.9639 101.759 19.2732C100.334 21.316 99.4428 23.9804 99.4428 26.7338C99.4428 32.7733 103.273 37.3029 108.35 37.3029C113.606 37.3029 117.881 32.3292 117.881 26.2897C117.881 20.0725 114.051 15.8981 108.528 15.8981ZM146.919 34.1055L149.77 37.3029C146.652 40.145 143.624 41.3885 139.526 41.3885C131.599 41.3885 125.987 35.349 125.987 26.8226C125.987 18.1186 131.688 12.079 139.794 12.079C143.802 12.079 147.009 13.4113 149.859 16.2534L146.919 19.1844C144.782 17.2304 142.466 16.2534 139.883 16.2534C134.449 16.2534 130.619 20.5166 130.619 26.5561C130.619 32.7733 134.449 37.0365 139.794 37.0365C142.555 37.1253 144.693 36.2371 146.919 34.1055ZM176.938 28.2436H153.867C154.135 30.6417 154.491 31.7963 155.649 33.3062C157.43 35.793 160.103 37.1253 163.131 37.1253C166.516 37.1253 169.812 35.2601 171.415 32.3292L175.423 33.8391C173.107 38.5463 168.386 41.3885 163.131 41.3885C154.936 41.3885 149.057 35.349 149.057 26.8226C149.057 18.2074 154.847 12.079 162.953 12.079C170.97 12.079 177.027 18.2074 177.027 26.3785C177.027 26.7338 177.027 27.5331 176.938 28.2436ZM154.224 24.691H172.395C172.217 22.5594 171.771 21.316 170.881 19.9837C169.099 17.6745 166.338 16.2534 163.309 16.2534C160.281 16.2534 157.519 17.6745 155.916 20.0725C154.936 21.316 154.58 22.4706 154.224 24.691ZM180.412 12.4343H184.954V16.3422C187.092 13.1448 189.408 11.8126 192.882 11.8126C196.712 11.8126 199.117 13.4113 200.364 16.9639C202.413 13.4113 204.996 11.8126 209.183 11.8126C212.389 11.8126 214.794 12.8784 216.219 14.8323C217.556 16.6087 217.912 18.2074 217.912 22.6482V40.5891H213.369V23.714C213.369 20.339 213.28 19.5396 212.567 18.385C211.766 16.9639 209.895 15.987 207.757 15.987C203.749 15.987 201.522 18.7403 201.522 23.714V40.5891H196.979V23.8028C196.979 21.0495 196.712 19.6284 196.089 18.4738C195.287 16.8751 193.595 16.0758 191.546 16.0758C187.537 16.0758 185.132 19.0067 185.132 23.8916V40.6779H180.59V12.4343H180.412ZM249.533 28.2436H226.463C226.73 30.6417 227.087 31.7963 228.245 33.3062C230.026 35.793 232.698 37.1253 235.727 37.1253C239.112 37.1253 242.407 35.2601 244.011 32.3292L248.019 33.8391C245.703 38.5463 240.982 41.3885 235.727 41.3885C227.532 41.3885 221.653 35.349 221.653 26.8226C221.653 18.2074 227.443 12.079 235.549 12.079C243.565 12.079 249.622 18.2074 249.622 26.3785C249.622 26.7338 249.622 27.5331 249.533 28.2436ZM226.285 24.691H244.456C244.278 22.5594 243.833 21.316 242.942 19.9837C241.249 17.6745 238.399 16.2534 235.371 16.2534C232.342 16.2534 229.581 17.6745 227.977 20.0725C226.998 21.316 226.641 22.4706 226.285 24.691ZM253.096 12.4343H257.639V16.431C260.044 13.1448 262.449 11.8126 265.923 11.8126C268.417 11.8126 270.733 12.7008 272.336 14.1218C274.118 15.8093 274.652 17.7633 274.652 21.5824V40.5003H270.11V22.6482C270.11 20.1613 269.842 18.8291 269.13 17.8521C268.328 16.6975 266.636 15.987 264.765 15.987C262.716 15.987 260.846 16.7863 259.51 18.385C258.174 19.8061 257.728 21.2271 257.728 23.5364V40.5891H253.185V12.4343H253.096ZM285.163 16.7863V35.0825C285.252 36.5036 285.609 36.77 287.301 36.77H289.439V40.7668H285.163C281.867 40.6779 280.62 39.5233 280.62 36.4147V16.7863H276.79V12.7008H280.62V3.90792H285.252V12.7008H289.439V16.7863H285.163Z"/><path fill="#7663FC" d="M32.8685 43.2534L27.1677 37.5692L27.2568 37.4804C34.8282 30.5527 36.2533 26.4671 36.2533 22.3816C36.2533 14.2993 29.84 7.81565 21.9123 7.81565C13.9847 7.81565 7.57134 14.3881 7.57134 22.3816C7.57134 26.4671 8.99653 30.6415 16.5679 37.4804C18.0821 38.9014 19.8636 40.5889 21.9123 42.7205L27.435 48.2271L27.524 48.316C25.2081 50.5364 23.3375 52.4015 21.9123 54.0002C19.9527 51.8686 17.2805 49.2041 13.7175 45.9179C2.13779 35.2599 0 28.8652 0 22.5592C0 10.1249 9.7982 0.088623 21.9123 0.088623C34.0265 0.088623 43.8247 10.1249 43.8247 22.5592C43.8247 28.3323 41.9541 34.1941 32.8685 43.2534ZM22.0014 15.2762C25.9207 15.2762 29.0383 18.4736 29.0383 22.3816C29.0383 26.2895 22.6249 31.6185 22.0014 32.2402C21.3779 31.6185 14.9645 26.4671 14.9645 22.3816C14.9645 18.4736 18.1712 15.2762 22.0014 15.2762Z"/><path fill="#7663FC" d="M322.567 25.4814C321.854 26.787 320.75 27.844 319.235 28.6433C317.721 29.4427 315.815 29.8423 313.517 29.8423H308.823V40.5625H303.211V12.6475H313.517C315.681 12.6475 317.525 13.0205 319.057 13.7665C320.58 14.5126 321.721 15.5429 322.487 16.8485C323.253 18.1541 323.627 19.6373 323.627 21.2893C323.627 22.7814 323.271 24.1758 322.567 25.4814ZM316.732 24.2647C317.481 23.5541 317.855 22.5683 317.855 21.2804C317.855 18.5626 316.332 17.2037 313.285 17.2037H308.832V25.3216H313.285C314.826 25.3305 315.975 24.9752 316.732 24.2647Z"/><path fill="#7663FC" d="M331.741 36.1221H340.969V40.563H326.129V12.6479H331.741V36.1221Z"/><path fill="#7663FC" d="M348.789 12.6479V29.9316C348.789 31.8234 349.278 33.2711 350.267 34.2748C351.256 35.2784 352.645 35.7758 354.436 35.7758C356.253 35.7758 357.66 35.2784 358.649 34.2748C359.638 33.2711 360.137 31.8323 360.137 29.9316V12.6479H365.793V29.8872C365.793 32.2586 365.276 34.2659 364.252 35.909C363.219 37.5521 361.847 38.7866 360.119 39.6126C358.391 40.4386 356.476 40.8561 354.365 40.8561C352.28 40.8561 350.383 40.4386 348.691 39.6126C346.989 38.7866 345.644 37.5521 344.655 35.909C343.667 34.2659 343.168 32.2675 343.168 29.8872V12.6479H348.789Z"/><path fill="#7663FC" d="M374.312 39.8434C372.744 39.1773 371.515 38.2181 370.607 36.9658C369.698 35.7134 369.226 34.2302 369.199 32.5249H375.212C375.292 33.6707 375.702 34.5766 376.432 35.2427C377.162 35.9088 378.178 36.2464 379.461 36.2464C380.77 36.2464 381.803 35.9355 382.551 35.3049C383.3 34.6743 383.674 33.8572 383.674 32.8447C383.674 32.0187 383.416 31.3348 382.908 30.8019C382.4 30.269 381.768 29.8516 381.002 29.5407C380.236 29.2387 379.184 28.8923 377.848 28.5193C376.031 27.9864 374.553 27.4624 373.412 26.9384C372.272 26.4144 371.301 25.6328 370.482 24.5759C369.662 23.5189 369.262 22.1156 369.262 20.3571C369.262 18.7051 369.68 17.2663 370.509 16.0406C371.337 14.8149 372.504 13.8735 374 13.2162C375.497 12.5679 377.207 12.2393 379.131 12.2393C382.017 12.2393 384.369 12.9409 386.177 14.3353C387.985 15.7386 388.974 17.6926 389.161 20.1972H382.988C382.934 19.238 382.525 18.4475 381.768 17.8169C381.01 17.1863 379.995 16.8755 378.739 16.8755C377.643 16.8755 376.771 17.1597 376.111 17.7192C375.461 18.2788 375.132 19.0959 375.132 20.1617C375.132 20.9077 375.381 21.5295 375.88 22.018C376.37 22.5153 376.984 22.915 377.724 23.217C378.454 23.5278 379.496 23.8742 380.832 24.2739C382.649 24.8068 384.137 25.3397 385.286 25.8726C386.435 26.4055 387.424 27.2048 388.252 28.2706C389.081 29.3364 389.499 30.7397 389.499 32.4717C389.499 33.9638 389.116 35.3493 388.341 36.6283C387.566 37.9072 386.426 38.9286 384.93 39.6924C383.433 40.4562 381.652 40.8293 379.594 40.8293C377.635 40.847 375.88 40.5095 374.312 39.8434Z"/></svg>