<svg width="673" height="555" viewBox="0 0 673 555" fill="none" xmlns="http://www.w3.org/2000/svg">
<path d="M664.223 126.831L11.2227 46.3826C5.25995 45.648 0 50.2997 0 56.3076V443.414C0 448.353 3.60535 452.552 8.48718 453.299L661.487 553.238C667.542 554.165 673 549.479 673 543.353V136.756C673 131.706 669.235 127.448 664.223 126.831Z" fill="url(#paint0_linear)"/>
<g>
<rect x="114.5" y="0.5" width="444" height="421" rx="9.5" fill="white"/>
<path d="M114 10 C114 4.47715 118.477 0 124 0 H550C555 0 555 4.47715 559 10V60H114V10Z" fill="#FAFAFA"/>
<path d="M188.58 38L185.5 32.56H184.18V38H181.38V24.04H186.62C187.7 24.04 188.62 24.2333 189.38 24.62C190.14 24.9933 190.707 25.5067 191.08 26.16C191.467 26.8 191.66 27.52 191.66 28.32C191.66 29.24 191.393 30.0733 190.86 30.82C190.327 31.5533 189.533 32.06 188.48 32.34L191.82 38H188.58ZM184.18 30.46H186.52C187.28 30.46 187.847 30.28 188.22 29.92C188.593 29.5467 188.78 29.0333 188.78 28.38C188.78 27.74 188.593 27.2467 188.22 26.9C187.847 26.54 187.28 26.36 186.52 26.36H184.18V30.46ZM204.493 32.22C204.493 32.62 204.466 32.98 204.413 33.3H196.313C196.379 34.1 196.659 34.7267 197.153 35.18C197.646 35.6333 198.253 35.86 198.973 35.86C200.013 35.86 200.753 35.4133 201.193 34.52H204.213C203.893 35.5867 203.279 36.4667 202.373 37.16C201.466 37.84 200.353 38.18 199.033 38.18C197.966 38.18 197.006 37.9467 196.153 37.48C195.313 37 194.653 36.3267 194.173 35.46C193.706 34.5933 193.472 33.5933 193.472 32.46C193.472 31.3133 193.706 30.3067 194.173 29.44C194.639 28.5733 195.293 27.9067 196.133 27.44C196.973 26.9733 197.939 26.74 199.033 26.74C200.086 26.74 201.026 26.9667 201.853 27.42C202.693 27.8733 203.339 28.52 203.793 29.36C204.259 30.1867 204.493 31.14 204.493 32.22ZM201.593 31.42C201.579 30.7 201.319 30.1267 200.813 29.7C200.306 29.26 199.686 29.04 198.953 29.04C198.259 29.04 197.673 29.2533 197.193 29.68C196.726 30.0933 196.439 30.6733 196.333 31.42H201.593ZM205.816 32.42C205.816 31.3 206.036 30.3067 206.476 29.44C206.93 28.5733 207.536 27.9067 208.296 27.44C209.07 26.9733 209.93 26.74 210.876 26.74C211.703 26.74 212.423 26.9067 213.036 27.24C213.663 27.5733 214.163 27.9933 214.536 28.5V26.92H217.356V38H214.536V36.38C214.176 36.9 213.676 37.3333 213.036 37.68C212.41 38.0133 211.683 38.18 210.856 38.18C209.923 38.18 209.07 37.94 208.296 37.46C207.536 36.98 206.93 36.3067 206.476 35.44C206.036 34.56 205.816 33.5533 205.816 32.42ZM214.536 32.46C214.536 31.78 214.403 31.2 214.136 30.72C213.87 30.2267 213.51 29.8533 213.056 29.6C212.603 29.3333 212.116 29.2 211.596 29.2C211.076 29.2 210.596 29.3267 210.156 29.58C209.716 29.8333 209.356 30.2067 209.076 30.7C208.81 31.18 208.676 31.7533 208.676 32.42C208.676 33.0867 208.81 33.6733 209.076 34.18C209.356 34.6733 209.716 35.0533 210.156 35.32C210.61 35.5867 211.09 35.72 211.596 35.72C212.116 35.72 212.603 35.5933 213.056 35.34C213.51 35.0733 213.87 34.7 214.136 34.22C214.403 33.7267 214.536 33.14 214.536 32.46ZM219.371 32.46C219.371 31.3133 219.604 30.3133 220.071 29.46C220.538 28.5933 221.184 27.9267 222.011 27.46C222.838 26.98 223.784 26.74 224.851 26.74C226.224 26.74 227.358 27.0867 228.251 27.78C229.158 28.46 229.764 29.42 230.071 30.66H227.051C226.891 30.18 226.618 29.8067 226.231 29.54C225.858 29.26 225.391 29.12 224.831 29.12C224.031 29.12 223.398 29.4133 222.931 30C222.464 30.5733 222.231 31.3933 222.231 32.46C222.231 33.5133 222.464 34.3333 222.931 34.92C223.398 35.4933 224.031 35.78 224.831 35.78C225.964 35.78 226.704 35.2733 227.051 34.26H230.071C229.764 35.46 229.158 36.4133 228.251 37.12C227.344 37.8267 226.211 38.18 224.851 38.18C223.784 38.18 222.838 37.9467 222.011 37.48C221.184 37 220.538 36.3333 220.071 35.48C219.604 34.6133 219.371 33.6067 219.371 32.46ZM238.362 26.76C239.202 26.76 239.949 26.9467 240.602 27.32C241.256 27.68 241.762 28.22 242.122 28.94C242.496 29.6467 242.682 30.5 242.682 31.5V38H239.882V31.88C239.882 31 239.662 30.3267 239.222 29.86C238.782 29.38 238.182 29.14 237.422 29.14C236.649 29.14 236.036 29.38 235.582 29.86C235.142 30.3267 234.922 31 234.922 31.88V38H232.122V23.2H234.922V28.3C235.282 27.82 235.762 27.4467 236.362 27.18C236.962 26.9 237.629 26.76 238.362 26.76ZM256.59 38.14C255.284 38.14 254.084 37.8333 252.99 37.22C251.897 36.6067 251.03 35.76 250.39 34.68C249.75 33.5867 249.43 32.3533 249.43 30.98C249.43 29.62 249.75 28.4 250.39 27.32C251.03 26.2267 251.897 25.3733 252.99 24.76C254.084 24.1467 255.284 23.84 256.59 23.84C257.91 23.84 259.11 24.1467 260.19 24.76C261.284 25.3733 262.144 26.2267 262.77 27.32C263.41 28.4 263.73 29.62 263.73 30.98C263.73 32.3533 263.41 33.5867 262.77 34.68C262.144 35.76 261.284 36.6067 260.19 37.22C259.097 37.8333 257.897 38.14 256.59 38.14ZM256.59 35.64C257.43 35.64 258.17 35.4533 258.81 35.08C259.45 34.6933 259.95 34.1467 260.31 33.44C260.67 32.7333 260.85 31.9133 260.85 30.98C260.85 30.0467 260.67 29.2333 260.31 28.54C259.95 27.8333 259.45 27.2933 258.81 26.92C258.17 26.5467 257.43 26.36 256.59 26.36C255.75 26.36 255.004 26.5467 254.35 26.92C253.71 27.2933 253.21 27.8333 252.85 28.54C252.49 29.2333 252.31 30.0467 252.31 30.98C252.31 31.9133 252.49 32.7333 252.85 33.44C253.21 34.1467 253.71 34.6933 254.35 35.08C255.004 35.4533 255.75 35.64 256.59 35.64ZM276.274 26.92V38H273.454V36.6C273.094 37.08 272.62 37.46 272.034 37.74C271.46 38.0067 270.834 38.14 270.154 38.14C269.287 38.14 268.52 37.96 267.854 37.6C267.187 37.2267 266.66 36.6867 266.274 35.98C265.9 35.26 265.714 34.4067 265.714 33.42V26.92H268.514V33.02C268.514 33.9 268.734 34.58 269.174 35.06C269.614 35.5267 270.214 35.76 270.974 35.76C271.747 35.76 272.354 35.5267 272.794 35.06C273.234 34.58 273.454 33.9 273.454 33.02V26.92H276.274ZM282.296 29.22V34.58C282.296 34.9533 282.383 35.2267 282.556 35.4C282.743 35.56 283.05 35.64 283.476 35.64H284.776V38H283.016C280.656 38 279.476 36.8533 279.476 34.56V29.22H278.156V26.92H279.476V24.18H282.296V26.92H284.776V29.22H282.296Z" fill="#242424"/>
<path d="M147.347 20C147.347 18.3431 146.004 17 144.347 17H133.168C131.511 17 130.168 18.3431 130.168 20V31.7115C130.168 32.6099 131.26 33.0526 131.886 32.4077L133.986 30.2423H145.347C146.452 30.2423 147.347 29.3469 147.347 28.2423V20Z" fill="#B1D0FF"/>
<path fill-rule="evenodd" clip-rule="evenodd" d="M141.922 21.0071C139.713 21.0354 137.945 22.8491 137.973 25.058L138.125 36.9206C138.153 39.1295 139.967 40.8973 142.176 40.869L158.217 40.6636L162.278 44.7457C162.912 45.3825 163.999 44.9258 163.987 44.0276L163.74 24.728C163.712 22.5191 161.898 20.7513 159.689 20.7796L141.922 21.0071ZM154.792 29.1925C154.974 29.2066 155.129 29.3277 155.188 29.5009C155.247 29.6745 155.197 29.8655 155.061 29.9879L153.208 31.6553L153.792 34.0821C153.835 34.2605 153.768 34.4465 153.62 34.5557C153.474 34.665 153.277 34.6761 153.119 34.5844L150.965 33.3334L148.843 34.6391C148.771 34.6833 148.691 34.7058 148.61 34.7069C148.516 34.7081 148.422 34.6803 148.341 34.6233C148.191 34.5179 148.119 34.3337 148.157 34.1543L148.679 31.7133L146.784 30.0939C146.645 29.9751 146.59 29.785 146.644 29.6104C146.699 29.436 146.851 29.3109 147.033 29.2918L149.51 29.035L150.46 26.7284C150.53 26.5589 150.693 26.448 150.876 26.4457C151.06 26.4433 151.226 26.55 151.3 26.7176L152.309 28.9991L154.792 29.1925Z" fill="#3082FF"/>
<rect x="128" y="355" width="323" height="14" rx="7" fill="#F4F1FF"/>
<rect x="114" y="59" width="445" height="1" fill="#DDD9EE"/>
<rect x="128" y="92" width="74" height="14" rx="7" fill="#F4F1FF"/>
</g>
<rect x="114.5" y="0.5" width="444" height="421" rx="9.5" stroke="#DDD9EE"/>
<rect x="211" y="86" width="111" height="25" rx="12.5" fill="#3788EE"/>
<path d="M225.011 104H227.472V99.1932H232.205V97.1648H227.472V94.392H232.716V92.3636H225.011V104ZM234.325 104H236.746V95.2727H234.325V104ZM235.541 94.1477C236.263 94.1477 236.854 93.5966 236.854 92.9205C236.854 92.25 236.263 91.6989 235.541 91.6989C234.825 91.6989 234.234 92.25 234.234 92.9205C234.234 93.5966 234.825 94.1477 235.541 94.1477ZM238.685 104H241.105V99.0625C241.105 97.9886 241.889 97.25 242.957 97.25C243.293 97.25 243.753 97.3068 243.98 97.3807V95.233C243.764 95.1818 243.463 95.1477 243.219 95.1477C242.241 95.1477 241.44 95.7159 241.122 96.7955H241.031V95.2727H238.685V104ZM252.493 97.7614C252.277 96.1534 250.982 95.1591 248.777 95.1591C246.544 95.1591 245.072 96.1932 245.078 97.875C245.072 99.1818 245.896 100.028 247.601 100.369L249.112 100.67C249.874 100.824 250.22 101.102 250.232 101.54C250.22 102.057 249.658 102.426 248.811 102.426C247.947 102.426 247.374 102.057 247.226 101.347L244.845 101.472C245.072 103.142 246.493 104.17 248.805 104.17C251.067 104.17 252.686 103.017 252.692 101.295C252.686 100.034 251.862 99.2784 250.169 98.9318L248.589 98.6136C247.777 98.4375 247.476 98.1591 247.482 97.7386C247.476 97.2159 248.067 96.875 248.817 96.875C249.658 96.875 250.158 97.3352 250.277 97.8977L252.493 97.7614ZM258.858 95.2727H257.216V93.1818H254.795V95.2727H253.602V97.0909H254.795V101.636C254.784 103.347 255.949 104.193 257.705 104.119C258.33 104.097 258.773 103.972 259.017 103.892L258.636 102.091C258.517 102.114 258.261 102.17 258.034 102.17C257.551 102.17 257.216 101.989 257.216 101.318V97.0909H258.858V95.2727ZM273.916 92.3636H271.467V99.6818H271.365L266.342 92.3636H264.183V104H266.643V96.6761H266.729L271.791 104H273.916V92.3636ZM278.392 104.165C279.682 104.165 280.517 103.602 280.943 102.79H281.011V104H283.307V98.1136C283.307 96.0341 281.545 95.1591 279.602 95.1591C277.511 95.1591 276.136 96.1591 275.801 97.75L278.04 97.9318C278.205 97.3523 278.722 96.9261 279.591 96.9261C280.415 96.9261 280.886 97.3409 280.886 98.0568V98.0909C280.886 98.6534 280.29 98.7273 278.773 98.875C277.045 99.0341 275.494 99.6136 275.494 101.562C275.494 103.29 276.727 104.165 278.392 104.165ZM279.085 102.494C278.341 102.494 277.807 102.148 277.807 101.483C277.807 100.801 278.369 100.466 279.222 100.347C279.75 100.273 280.614 100.148 280.903 99.9545V100.881C280.903 101.795 280.148 102.494 279.085 102.494ZM285.185 104H287.605V98.7614C287.605 97.7955 288.219 97.1534 289.026 97.1534C289.821 97.1534 290.355 97.6989 290.355 98.5568V104H292.702V98.6705C292.702 97.767 293.219 97.1534 294.099 97.1534C294.872 97.1534 295.452 97.6364 295.452 98.608V104H297.866V98.1307C297.866 96.2386 296.741 95.1591 295.116 95.1591C293.838 95.1591 292.844 95.8125 292.486 96.8125H292.395C292.116 95.8011 291.224 95.1591 290.026 95.1591C288.849 95.1591 287.957 95.7841 287.594 96.8125H287.491V95.2727H285.185V104ZM303.756 104.17C305.915 104.17 307.369 103.119 307.71 101.5L305.472 101.352C305.227 102.017 304.602 102.364 303.795 102.364C302.585 102.364 301.818 101.562 301.818 100.261V100.256H307.761V99.5909C307.761 96.625 305.966 95.1591 303.659 95.1591C301.091 95.1591 299.426 96.983 299.426 99.6761C299.426 102.443 301.068 104.17 303.756 104.17ZM301.818 98.7557C301.869 97.7614 302.625 96.9659 303.699 96.9659C304.75 96.9659 305.477 97.7159 305.483 98.7557H301.818Z" fill="white"/>
<rect x="128" y="139" width="405" height="14" rx="7" fill="#F4F1FF"/>
<rect x="399" y="175" width="87" height="14" rx="7" fill="#F4F1FF"/>
<rect x="128" y="175" width="39" height="14" rx="7" fill="#F4F1FF"/>
<rect x="128" y="211" width="380" height="14" rx="7" fill="#F4F1FF"/>
<rect x="482" y="247" width="42" height="14" rx="7" fill="#F4F1FF"/>
<rect x="128" y="247" width="155" height="14" rx="7" fill="#F4F1FF"/>
<rect x="128" y="283" width="323" height="14" rx="7" fill="#F4F1FF"/>
<rect x="334" y="319" width="88" height="14" rx="7" fill="#F4F1FF"/>
<rect x="128" y="319" width="60" height="14" rx="7" fill="#F4F1FF"/>
<rect x="175" y="169" width="216" height="25" rx="12.5" fill="#3788EE"/>
<path d="M188.966 187H191.386V182.062C191.386 180.989 192.17 180.25 193.239 180.25C193.574 180.25 194.034 180.307 194.261 180.381V178.233C194.045 178.182 193.744 178.148 193.5 178.148C192.523 178.148 191.722 178.716 191.403 179.795H191.312V178.273H188.966V187ZM199.084 187.17C201.243 187.17 202.697 186.119 203.038 184.5L200.8 184.352C200.555 185.017 199.93 185.364 199.124 185.364C197.913 185.364 197.146 184.562 197.146 183.261V183.256H203.089V182.591C203.089 179.625 201.294 178.159 198.987 178.159C196.419 178.159 194.754 179.983 194.754 182.676C194.754 185.443 196.396 187.17 199.084 187.17ZM197.146 181.756C197.197 180.761 197.953 179.966 199.027 179.966C200.078 179.966 200.805 180.716 200.811 181.756H197.146ZM207.158 187.165C208.447 187.165 209.283 186.602 209.709 185.79H209.777V187H212.072V181.114C212.072 179.034 210.311 178.159 208.368 178.159C206.277 178.159 204.902 179.159 204.567 180.75L206.805 180.932C206.97 180.352 207.487 179.926 208.357 179.926C209.18 179.926 209.652 180.341 209.652 181.057V181.091C209.652 181.653 209.055 181.727 207.538 181.875C205.811 182.034 204.26 182.614 204.26 184.562C204.26 186.29 205.493 187.165 207.158 187.165ZM207.851 185.494C207.107 185.494 206.572 185.148 206.572 184.483C206.572 183.801 207.135 183.466 207.987 183.347C208.516 183.273 209.379 183.148 209.669 182.955V183.881C209.669 184.795 208.913 185.494 207.851 185.494ZM221.212 180.761C220.996 179.153 219.7 178.159 217.496 178.159C215.263 178.159 213.791 179.193 213.797 180.875C213.791 182.182 214.615 183.028 216.32 183.369L217.831 183.67C218.592 183.824 218.939 184.102 218.95 184.54C218.939 185.057 218.376 185.426 217.53 185.426C216.666 185.426 216.092 185.057 215.945 184.347L213.564 184.472C213.791 186.142 215.212 187.17 217.524 187.17C219.786 187.17 221.405 186.017 221.411 184.295C221.405 183.034 220.581 182.278 218.888 181.932L217.308 181.614C216.496 181.438 216.195 181.159 216.2 180.739C216.195 180.216 216.786 179.875 217.536 179.875C218.376 179.875 218.876 180.335 218.996 180.898L221.212 180.761ZM226.878 187.17C229.526 187.17 231.173 185.358 231.173 182.67C231.173 179.966 229.526 178.159 226.878 178.159C224.23 178.159 222.582 179.966 222.582 182.67C222.582 185.358 224.23 187.17 226.878 187.17ZM226.889 185.295C225.668 185.295 225.043 184.176 225.043 182.653C225.043 181.131 225.668 180.006 226.889 180.006C228.088 180.006 228.713 181.131 228.713 182.653C228.713 184.176 228.088 185.295 226.889 185.295ZM235.168 181.955C235.173 180.83 235.844 180.17 236.821 180.17C237.793 180.17 238.378 180.807 238.372 181.875V187H240.793V181.443C240.793 179.409 239.599 178.159 237.781 178.159C236.486 178.159 235.548 178.795 235.156 179.812H235.054V178.273H232.747V187H235.168V181.955ZM247.898 190.273C249.699 190.273 250.653 189.352 251.148 187.943L254.54 178.284L251.977 178.273L250.153 184.682H250.062L248.256 178.273H245.71L248.841 187.25L248.699 187.619C248.381 188.438 247.773 188.477 246.92 188.216L246.375 190.023C246.722 190.17 247.284 190.273 247.898 190.273ZM259.425 187.17C262.072 187.17 263.72 185.358 263.72 182.67C263.72 179.966 262.072 178.159 259.425 178.159C256.777 178.159 255.129 179.966 255.129 182.67C255.129 185.358 256.777 187.17 259.425 187.17ZM259.436 185.295C258.214 185.295 257.589 184.176 257.589 182.653C257.589 181.131 258.214 180.006 259.436 180.006C260.635 180.006 261.26 181.131 261.26 182.653C261.26 184.176 260.635 185.295 259.436 185.295ZM270.891 183.284C270.896 184.455 270.095 185.068 269.226 185.068C268.311 185.068 267.72 184.426 267.714 183.398V178.273H265.294V183.83C265.3 185.869 266.493 187.114 268.249 187.114C269.561 187.114 270.504 186.438 270.896 185.415H270.987V187H273.311V178.273H270.891V183.284ZM277.51 175.364H275.692V176.602C275.692 177.562 275.351 178.261 274.97 178.864L276.038 179.494C276.839 178.824 277.51 177.631 277.51 176.591V175.364ZM278.778 187H281.199V182.062C281.199 180.989 281.983 180.25 283.051 180.25C283.386 180.25 283.847 180.307 284.074 180.381V178.233C283.858 178.182 283.557 178.148 283.312 178.148C282.335 178.148 281.534 178.716 281.216 179.795H281.125V178.273H278.778V187ZM288.896 187.17C291.055 187.17 292.51 186.119 292.851 184.5L290.612 184.352C290.368 185.017 289.743 185.364 288.936 185.364C287.726 185.364 286.959 184.562 286.959 183.261V183.256H292.902V182.591C292.902 179.625 291.107 178.159 288.8 178.159C286.232 178.159 284.567 179.983 284.567 182.676C284.567 185.443 286.209 187.17 288.896 187.17ZM286.959 181.756C287.01 180.761 287.766 179.966 288.839 179.966C289.891 179.966 290.618 180.716 290.624 181.756H286.959ZM298.185 187H300.605V178.273H298.185V187ZM299.401 177.148C300.122 177.148 300.713 176.597 300.713 175.92C300.713 175.25 300.122 174.699 299.401 174.699C298.685 174.699 298.094 175.25 298.094 175.92C298.094 176.597 298.685 177.148 299.401 177.148ZM304.964 181.955C304.97 180.83 305.641 180.17 306.618 180.17C307.589 180.17 308.175 180.807 308.169 181.875V187H310.589V181.443C310.589 179.409 309.396 178.159 307.578 178.159C306.283 178.159 305.345 178.795 304.953 179.812H304.851V178.273H302.544V187H304.964V181.955ZM317.139 178.273H315.497V176.182H313.077V178.273H311.884V180.091H313.077V184.636C313.065 186.347 314.23 187.193 315.986 187.119C316.611 187.097 317.054 186.972 317.298 186.892L316.918 185.091C316.798 185.114 316.543 185.17 316.315 185.17C315.832 185.17 315.497 184.989 315.497 184.318V180.091H317.139V178.273ZM322.599 187.17C324.759 187.17 326.213 186.119 326.554 184.5L324.315 184.352C324.071 185.017 323.446 185.364 322.639 185.364C321.429 185.364 320.662 184.562 320.662 183.261V183.256H326.605V182.591C326.605 179.625 324.81 178.159 322.503 178.159C319.935 178.159 318.27 179.983 318.27 182.676C318.27 185.443 319.912 187.17 322.599 187.17ZM320.662 181.756C320.713 180.761 321.469 179.966 322.543 179.966C323.594 179.966 324.321 180.716 324.327 181.756H320.662ZM328.185 187H330.605V182.062C330.605 180.989 331.389 180.25 332.457 180.25C332.793 180.25 333.253 180.307 333.48 180.381V178.233C333.264 178.182 332.963 178.148 332.719 178.148C331.741 178.148 330.94 178.716 330.622 179.795H330.531V178.273H328.185V187ZM338.303 187.17C340.462 187.17 341.916 186.119 342.257 184.5L340.018 184.352C339.774 185.017 339.149 185.364 338.342 185.364C337.132 185.364 336.365 184.562 336.365 183.261V183.256H342.308V182.591C342.308 179.625 340.513 178.159 338.206 178.159C335.638 178.159 333.973 179.983 333.973 182.676C333.973 185.443 335.615 187.17 338.303 187.17ZM336.365 181.756C336.416 180.761 337.172 179.966 338.246 179.966C339.297 179.966 340.024 180.716 340.03 181.756H336.365ZM351.149 180.761C350.933 179.153 349.638 178.159 347.433 178.159C345.2 178.159 343.729 179.193 343.734 180.875C343.729 182.182 344.553 183.028 346.257 183.369L347.768 183.67C348.53 183.824 348.876 184.102 348.888 184.54C348.876 185.057 348.314 185.426 347.467 185.426C346.604 185.426 346.03 185.057 345.882 184.347L343.501 184.472C343.729 186.142 345.149 187.17 347.462 187.17C349.723 187.17 351.342 186.017 351.348 184.295C351.342 183.034 350.518 182.278 348.825 181.932L347.246 181.614C346.433 181.438 346.132 181.159 346.138 180.739C346.132 180.216 346.723 179.875 347.473 179.875C348.314 179.875 348.814 180.335 348.933 180.898L351.149 180.761ZM357.514 178.273H355.872V176.182H353.452V178.273H352.259V180.091H353.452V184.636C353.44 186.347 354.605 187.193 356.361 187.119C356.986 187.097 357.429 186.972 357.673 186.892L357.293 185.091C357.173 185.114 356.918 185.17 356.69 185.17C356.207 185.17 355.872 184.989 355.872 184.318V180.091H357.514V178.273ZM362.974 187.17C365.134 187.17 366.588 186.119 366.929 184.5L364.69 184.352C364.446 185.017 363.821 185.364 363.014 185.364C361.804 185.364 361.037 184.562 361.037 183.261V183.256H366.98V182.591C366.98 179.625 365.185 178.159 362.878 178.159C360.31 178.159 358.645 179.983 358.645 182.676C358.645 185.443 360.287 187.17 362.974 187.17ZM361.037 181.756C361.088 180.761 361.844 179.966 362.918 179.966C363.969 179.966 364.696 180.716 364.702 181.756H361.037ZM371.776 187.142C373.185 187.142 373.918 186.33 374.253 185.602H374.355V187H376.741V175.364H374.327V179.739H374.253C373.929 179.028 373.23 178.159 371.77 178.159C369.855 178.159 368.236 179.648 368.236 182.648C368.236 185.568 369.787 187.142 371.776 187.142ZM372.543 185.216C371.355 185.216 370.707 184.159 370.707 182.636C370.707 181.125 371.344 180.085 372.543 180.085C373.719 180.085 374.378 181.08 374.378 182.636C374.378 184.193 373.707 185.216 372.543 185.216Z" fill="white"/>
<rect x="291" y="241" width="183" height="25" rx="12.5" fill="#3788EE"/>
<path d="M309.608 250.273H307.966V248.182H305.545V250.273H304.352V252.091H305.545V256.636C305.534 258.347 306.699 259.193 308.455 259.119C309.08 259.097 309.523 258.972 309.767 258.892L309.386 257.091C309.267 257.114 309.011 257.17 308.784 257.17C308.301 257.17 307.966 256.989 307.966 256.318V252.091H309.608V250.273ZM313.793 253.955C313.798 252.83 314.486 252.17 315.474 252.17C316.457 252.17 317.037 252.801 317.031 253.875V259H319.452V253.443C319.457 251.398 318.253 250.159 316.435 250.159C315.111 250.159 314.224 250.784 313.827 251.812H313.724V247.364H311.372V259H313.793V253.955ZM325.334 259.17C327.493 259.17 328.947 258.119 329.288 256.5L327.05 256.352C326.805 257.017 326.18 257.364 325.374 257.364C324.163 257.364 323.396 256.562 323.396 255.261V255.256H329.339V254.591C329.339 251.625 327.544 250.159 325.237 250.159C322.669 250.159 321.004 251.983 321.004 254.676C321.004 257.443 322.646 259.17 325.334 259.17ZM323.396 253.756C323.447 252.761 324.203 251.966 325.277 251.966C326.328 251.966 327.055 252.716 327.061 253.756H323.396ZM338.18 252.761C337.964 251.153 336.669 250.159 334.464 250.159C332.232 250.159 330.76 251.193 330.766 252.875C330.76 254.182 331.584 255.028 333.288 255.369L334.8 255.67C335.561 255.824 335.908 256.102 335.919 256.54C335.908 257.057 335.345 257.426 334.499 257.426C333.635 257.426 333.061 257.057 332.913 256.347L330.533 256.472C330.76 258.142 332.18 259.17 334.493 259.17C336.754 259.17 338.374 258.017 338.379 256.295C338.374 255.034 337.55 254.278 335.857 253.932L334.277 253.614C333.464 253.438 333.163 253.159 333.169 252.739C333.163 252.216 333.754 251.875 334.504 251.875C335.345 251.875 335.845 252.335 335.964 252.898L338.18 252.761ZM343.881 259.17C346.04 259.17 347.494 258.119 347.835 256.5L345.597 256.352C345.352 257.017 344.727 257.364 343.92 257.364C342.71 257.364 341.943 256.562 341.943 255.261V255.256H347.886V254.591C347.886 251.625 346.091 250.159 343.784 250.159C341.216 250.159 339.551 251.983 339.551 254.676C339.551 257.443 341.193 259.17 343.881 259.17ZM341.943 253.756C341.994 252.761 342.75 251.966 343.824 251.966C344.875 251.966 345.602 252.716 345.608 253.756H341.943ZM353.169 259H355.589V254.062C355.589 252.989 356.374 252.25 357.442 252.25C357.777 252.25 358.237 252.307 358.464 252.381V250.233C358.249 250.182 357.947 250.148 357.703 250.148C356.726 250.148 355.925 250.716 355.607 251.795H355.516V250.273H353.169V259ZM363.287 259.17C365.446 259.17 366.901 258.119 367.241 256.5L365.003 256.352C364.759 257.017 364.134 257.364 363.327 257.364C362.116 257.364 361.349 256.562 361.349 255.261V255.256H367.293V254.591C367.293 251.625 365.497 250.159 363.19 250.159C360.622 250.159 358.957 251.983 358.957 254.676C358.957 257.443 360.599 259.17 363.287 259.17ZM361.349 253.756C361.401 252.761 362.156 251.966 363.23 251.966C364.281 251.966 365.009 252.716 365.014 253.756H361.349ZM371.293 247.364H368.872V259H371.293V247.364ZM377.209 259.17C379.368 259.17 380.822 258.119 381.163 256.5L378.925 256.352C378.68 257.017 378.055 257.364 377.249 257.364C376.038 257.364 375.271 256.562 375.271 255.261V255.256H381.214V254.591C381.214 251.625 379.419 250.159 377.112 250.159C374.544 250.159 372.879 251.983 372.879 254.676C372.879 257.443 374.521 259.17 377.209 259.17ZM375.271 253.756C375.322 252.761 376.078 251.966 377.152 251.966C378.203 251.966 378.93 252.716 378.936 253.756H375.271ZM390.68 250.273H388.118L386.311 256.517H386.22L384.408 250.273H381.851L384.902 259H387.629L390.68 250.273ZM394.158 259.165C395.447 259.165 396.283 258.602 396.709 257.79H396.777V259H399.072V253.114C399.072 251.034 397.311 250.159 395.368 250.159C393.277 250.159 391.902 251.159 391.567 252.75L393.805 252.932C393.97 252.352 394.487 251.926 395.357 251.926C396.18 251.926 396.652 252.341 396.652 253.057V253.091C396.652 253.653 396.055 253.727 394.538 253.875C392.811 254.034 391.26 254.614 391.26 256.562C391.26 258.29 392.493 259.165 394.158 259.165ZM394.851 257.494C394.107 257.494 393.572 257.148 393.572 256.483C393.572 255.801 394.135 255.466 394.987 255.347C395.516 255.273 396.379 255.148 396.669 254.955V255.881C396.669 256.795 395.913 257.494 394.851 257.494ZM403.371 253.955C403.376 252.83 404.047 252.17 405.024 252.17C405.996 252.17 406.581 252.807 406.575 253.875V259H408.996V253.443C408.996 251.409 407.803 250.159 405.984 250.159C404.689 250.159 403.751 250.795 403.359 251.812H403.257V250.273H400.95V259H403.371V253.955ZM415.545 250.273H413.903V248.182H411.483V250.273H410.29V252.091H411.483V256.636C411.472 258.347 412.636 259.193 414.392 259.119C415.017 259.097 415.46 258.972 415.705 258.892L415.324 257.091C415.205 257.114 414.949 257.17 414.722 257.17C414.239 257.17 413.903 256.989 413.903 256.318V252.091H415.545V250.273ZM428.087 252.761C427.871 251.153 426.575 250.159 424.371 250.159C422.138 250.159 420.666 251.193 420.672 252.875C420.666 254.182 421.49 255.028 423.195 255.369L424.706 255.67C425.467 255.824 425.814 256.102 425.825 256.54C425.814 257.057 425.251 257.426 424.405 257.426C423.541 257.426 422.967 257.057 422.82 256.347L420.439 256.472C420.666 258.142 422.087 259.17 424.399 259.17C426.661 259.17 428.28 258.017 428.286 256.295C428.28 255.034 427.456 254.278 425.763 253.932L424.183 253.614C423.371 253.438 423.07 253.159 423.075 252.739C423.07 252.216 423.661 251.875 424.411 251.875C425.251 251.875 425.751 252.335 425.871 252.898L428.087 252.761ZM429.81 259H432.23V256.227L432.884 255.483L435.264 259H438.099L434.696 254.051L437.935 250.273H435.156L432.361 253.585H432.23V247.364H429.81V259ZM439.122 259H441.543V250.273H439.122V259ZM440.338 249.148C441.06 249.148 441.651 248.597 441.651 247.92C441.651 247.25 441.06 246.699 440.338 246.699C439.622 246.699 439.031 247.25 439.031 247.92C439.031 248.597 439.622 249.148 440.338 249.148ZM445.902 247.364H443.482V259H445.902V247.364ZM450.261 247.364H447.841V259H450.261V247.364ZM459.462 252.761C459.246 251.153 457.95 250.159 455.746 250.159C453.513 250.159 452.041 251.193 452.047 252.875C452.041 254.182 452.865 255.028 454.57 255.369L456.081 255.67C456.842 255.824 457.189 256.102 457.2 256.54C457.189 257.057 456.626 257.426 455.78 257.426C454.916 257.426 454.342 257.057 454.195 256.347L451.814 256.472C452.041 258.142 453.462 259.17 455.774 259.17C458.036 259.17 459.655 258.017 459.661 256.295C459.655 255.034 458.831 254.278 457.138 253.932L455.558 253.614C454.746 253.438 454.445 253.159 454.45 252.739C454.445 252.216 455.036 251.875 455.786 251.875C456.626 251.875 457.126 252.335 457.246 252.898L459.462 252.761Z" fill="white"/>
<rect x="196" y="313" width="130" height="25" rx="12.5" fill="#3788EE"/>
<path d="M211.688 331H214.244L215.744 325.511H215.852L217.352 331H219.915L222.284 322.273H219.841L218.511 328.102H218.438L217.006 322.273H214.602L213.193 328.136H213.114L211.761 322.273H209.312L211.688 331ZM225.996 325.955C226.001 324.83 226.689 324.17 227.678 324.17C228.661 324.17 229.24 324.801 229.234 325.875V331H231.655V325.443C231.661 323.398 230.456 322.159 228.638 322.159C227.314 322.159 226.428 322.784 226.03 323.812H225.928V319.364H223.575V331H225.996V325.955ZM234.741 334.273C236.543 334.273 237.497 333.352 237.991 331.943L241.384 322.284L238.821 322.273L236.997 328.682H236.906L235.099 322.273H232.554L235.685 331.25L235.543 331.619C235.224 332.438 234.616 332.477 233.764 332.216L233.219 334.023C233.565 334.17 234.128 334.273 234.741 334.273ZM247.82 334.273C249.621 334.273 250.575 333.352 251.07 331.943L254.462 322.284L251.899 322.273L250.075 328.682H249.984L248.178 322.273H245.632L248.763 331.25L248.621 331.619C248.303 332.438 247.695 332.477 246.842 332.216L246.297 334.023C246.643 334.17 247.206 334.273 247.82 334.273ZM259.347 331.17C261.994 331.17 263.642 329.358 263.642 326.67C263.642 323.966 261.994 322.159 259.347 322.159C256.699 322.159 255.051 323.966 255.051 326.67C255.051 329.358 256.699 331.17 259.347 331.17ZM259.358 329.295C258.136 329.295 257.511 328.176 257.511 326.653C257.511 325.131 258.136 324.006 259.358 324.006C260.557 324.006 261.182 325.131 261.182 326.653C261.182 328.176 260.557 329.295 259.358 329.295ZM270.812 327.284C270.818 328.455 270.017 329.068 269.148 329.068C268.233 329.068 267.642 328.426 267.636 327.398V322.273H265.216V327.83C265.222 329.869 266.415 331.114 268.17 331.114C269.483 331.114 270.426 330.438 270.818 329.415H270.909V331H273.233V322.273H270.812V327.284ZM282.815 331.17C285.139 331.17 286.599 329.807 286.713 327.801H284.429C284.287 328.733 283.673 329.256 282.844 329.256C281.713 329.256 280.98 328.307 280.98 326.636C280.98 324.989 281.719 324.045 282.844 324.045C283.73 324.045 284.298 324.631 284.429 325.5H286.713C286.611 323.483 285.082 322.159 282.804 322.159C280.156 322.159 278.52 323.994 278.52 326.67C278.52 329.324 280.128 331.17 282.815 331.17ZM290.751 331.165C292.041 331.165 292.876 330.602 293.303 329.79H293.371V331H295.666V325.114C295.666 323.034 293.905 322.159 291.962 322.159C289.871 322.159 288.496 323.159 288.161 324.75L290.399 324.932C290.564 324.352 291.081 323.926 291.95 323.926C292.774 323.926 293.246 324.341 293.246 325.057V325.091C293.246 325.653 292.649 325.727 291.132 325.875C289.405 326.034 287.854 326.614 287.854 328.562C287.854 330.29 289.087 331.165 290.751 331.165ZM291.445 329.494C290.7 329.494 290.166 329.148 290.166 328.483C290.166 327.801 290.729 327.466 291.581 327.347C292.109 327.273 292.973 327.148 293.263 326.955V327.881C293.263 328.795 292.507 329.494 291.445 329.494ZM297.544 331H299.964V326.062C299.964 324.989 300.749 324.25 301.817 324.25C302.152 324.25 302.612 324.307 302.839 324.381V322.233C302.624 322.182 302.322 322.148 302.078 322.148C301.101 322.148 300.3 322.716 299.982 323.795H299.891V322.273H297.544V331ZM307.662 331.17C309.821 331.17 311.276 330.119 311.616 328.5L309.378 328.352C309.134 329.017 308.509 329.364 307.702 329.364C306.491 329.364 305.724 328.562 305.724 327.261V327.256H311.668V326.591C311.668 323.625 309.872 322.159 307.565 322.159C304.997 322.159 303.332 323.983 303.332 326.676C303.332 329.443 304.974 331.17 307.662 331.17ZM305.724 325.756C305.776 324.761 306.531 323.966 307.605 323.966C308.656 323.966 309.384 324.716 309.389 325.756H305.724Z" fill="white"/>
<g filter="url(#filter0_d)">
<rect x="365" y="387" width="163" height="68" rx="10" fill="#40B1FF"/>
<path d="M404.43 417.344H407.473C407.413 414.395 404.899 412.307 401.183 412.307C397.518 412.307 394.765 414.369 394.774 417.455C394.774 419.96 396.555 421.401 399.427 422.142L401.413 422.653C403.297 423.131 404.541 423.719 404.549 425.074C404.541 426.565 403.126 427.562 401.064 427.562C399.086 427.562 397.552 426.676 397.424 424.844H394.314C394.441 428.312 397.024 430.264 401.089 430.264C405.274 430.264 407.703 428.176 407.711 425.099C407.703 422.074 405.206 420.693 402.581 420.071L400.944 419.662C399.512 419.321 397.961 418.716 397.978 417.259C397.987 415.946 399.163 414.983 401.14 414.983C403.024 414.983 404.268 415.861 404.43 417.344ZM416.189 430.256C419.24 430.256 421.337 428.764 421.882 426.489L419.002 426.165C418.584 427.273 417.561 427.852 416.232 427.852C414.238 427.852 412.917 426.54 412.891 424.298H422.01V423.352C422.01 418.759 419.249 416.739 416.027 416.739C412.277 416.739 409.831 419.491 409.831 423.531C409.831 427.639 412.243 430.256 416.189 430.256ZM412.9 422.219C412.993 420.548 414.229 419.142 416.07 419.142C417.843 419.142 419.036 420.438 419.053 422.219H412.9ZM427.706 422.33C427.706 420.438 428.848 419.347 430.475 419.347C432.069 419.347 433.024 420.395 433.024 422.142V430H436.109V421.665C436.118 418.528 434.328 416.739 431.626 416.739C429.666 416.739 428.319 417.676 427.723 419.134H427.569V416.909H424.62V430H427.706V422.33ZM444.103 430.23C446.353 430.23 447.368 428.892 447.853 427.938H448.041V430H451.075V412.545H447.981V419.074H447.853C447.385 418.128 446.422 416.739 444.112 416.739C441.086 416.739 438.708 419.108 438.708 423.472C438.708 427.784 441.018 430.23 444.103 430.23ZM444.964 427.699C442.927 427.699 441.853 425.909 441.853 423.455C441.853 421.017 442.91 419.27 444.964 419.27C446.95 419.27 448.041 420.915 448.041 423.455C448.041 425.994 446.933 427.699 444.964 427.699Z" fill="white"/>
<path fill-rule="evenodd" clip-rule="evenodd" d="M478.754 411.135L496.393 420.06C496.963 420.348 497.168 421.003 496.851 421.522C496.744 421.698 496.585 421.842 496.393 421.94L478.754 430.864C478.184 431.153 477.465 430.966 477.149 430.447C477.051 430.287 477 430.107 477 429.925V423.074L488.021 421L477 418.938V412.075C477 411.481 477.529 411 478.181 411C478.381 411 478.579 411.047 478.754 411.135Z" fill="white"/>
</g>
<defs>
<filter id="filter0_d" x="355" y="381" width="183" height="88" filterUnits="userSpaceOnUse" color-interpolation-filters="sRGB">
<feFlood flood-opacity="0" result="BackgroundImageFix"/>
<feColorMatrix in="SourceAlpha" type="matrix" values="0 0 0 0 0 0 0 0 0 0 0 0 0 0 0 0 0 0 127 0"/>
<feOffset dy="4"/>
<feGaussianBlur stdDeviation="5"/>
<feColorMatrix type="matrix" values="0 0 0 0 0 0 0 0 0 0 0 0 0 0 0 0 0 0 0.05 0"/>
<feBlend mode="normal" in2="BackgroundImageFix" result="effect1_dropShadow"/>
<feBlend mode="normal" in="SourceGraphic" in2="effect1_dropShadow" result="shape"/>
</filter>
<linearGradient id="paint0_linear" x1="645.014" y1="643.216" x2="-222.333" y2="189.778" gradientUnits="userSpaceOnUse">
<stop stop-color="#6466EB"/>
<stop offset="1" stop-color="#B064EB"/>
</linearGradient>
</defs>
</svg>
