<svg width="67" height="60" viewBox="8 0 67 60" fill="none" xmlns="http://www.w3.org/2000/svg">
<path d="M21.9727 3.91579C21.9727 1.75315 23.7258 0 25.8884 0H57.1871L67.0009 9.81386V49.7718C67.0009 51.9344 65.2478 53.6876 63.0852 53.6876H25.8884C23.7258 53.6876 21.9727 51.9344 21.9727 49.7718V3.91579Z" fill="#EAAF23"/>
<path d="M57.1836 0L66.9975 9.81386H61.0994C58.9368 9.81386 57.1836 8.0607 57.1836 5.89807V0Z" fill="#F8CF6D"/>
<rect x="26.5898" y="6.3501" width="24.8233" height="3.46371" fill="#F8CF6D"/>
<rect x="35.8242" y="15.5869" width="24.8233" height="3.46371" fill="#F8CF6D"/>
<rect x="35.8242" y="28.2871" width="24.8233" height="3.46371" fill="#F8CF6D"/>
<rect x="35.8242" y="34.6372" width="22.5141" height="3.46371" fill="#F8CF6D"/>
<rect x="35.8242" y="40.9873" width="24.8233" height="3.46371" fill="#F8CF6D"/>
<rect x="35.8242" y="21.9365" width="21.3596" height="3.46371" fill="#F8CF6D"/>
<g filter="url(#filter0_d)">
<rect x="7" y="10.7466" width="29.3099" height="29.3099" rx="3.91579" fill="white"/>
</g>
<path d="M21.6302 17.0986C23.9345 17.0986 26.2377 17.0967 28.542 17.0986C29.4326 17.0996 29.9139 17.5877 29.9129 18.4843C29.9119 19.1878 29.91 19.8914 29.9012 20.5939C29.8954 21.1189 29.4811 21.64 29.0116 21.7302C28.4236 21.8428 27.8619 21.5759 27.6572 21.0519C27.5824 20.8617 27.5718 20.6434 27.5572 20.4357C27.5398 20.1941 27.5446 19.9506 27.5495 19.708C27.5533 19.5003 27.4641 19.4246 27.2565 19.4266C26.1737 19.4363 25.091 19.4382 24.0072 19.4401C23.7084 19.4411 23.4086 19.444 23.1108 19.4266C22.8808 19.413 22.7935 19.4896 22.7993 19.7264C22.811 20.2106 22.7964 20.6958 22.7964 21.181C22.7984 23.6302 22.8022 26.0794 22.8042 28.5287C22.8042 29.3612 22.8013 30.1938 22.7945 31.0264C22.7935 31.1914 22.8284 31.2962 23.0128 31.3427C23.6531 31.5019 23.9626 31.957 23.9102 32.6353C23.8704 33.1535 23.4358 33.5998 22.8585 33.6231C22.028 33.6571 21.1936 33.661 20.3631 33.6299C19.7529 33.6066 19.3008 33.1117 19.2697 32.5295C19.2396 31.9648 19.618 31.465 20.1953 31.3369C20.3903 31.2933 20.4553 31.2108 20.4543 31.0099C20.4456 28.9566 20.4427 26.9033 20.4437 24.85C20.4446 23.1693 20.4534 21.4876 20.4582 19.8069C20.4592 19.4363 20.4572 19.4401 20.0983 19.4401C18.7487 19.4421 17.3992 19.4411 16.0496 19.443C15.7236 19.443 15.7032 19.4654 15.7003 19.7856C15.6984 20.0447 15.6994 20.3028 15.6964 20.5619C15.6906 21.2547 15.1997 21.7545 14.5303 21.7506C13.8637 21.7457 13.3592 21.2392 13.3553 20.5609C13.3505 19.8166 13.3505 19.0733 13.3544 18.3291C13.3582 17.609 13.8754 17.0986 14.5982 17.0977C16.9422 17.0986 19.2862 17.0986 21.6302 17.0986Z" fill="#2B2165"/>
<defs>
<filter id="filter0_d" x="0.473684" y="6.83079" width="42.3626" height="42.3626" filterUnits="userSpaceOnUse" color-interpolation-filters="sRGB">
<feFlood flood-opacity="0" result="BackgroundImageFix"/>
<feColorMatrix in="SourceAlpha" type="matrix" values="0 0 0 0 0 0 0 0 0 0 0 0 0 0 0 0 0 0 127 0"/>
<feOffset dy="2.61053"/>
<feGaussianBlur stdDeviation="3.26316"/>
<feColorMatrix type="matrix" values="0 0 0 0 0 0 0 0 0 0 0 0 0 0 0 0 0 0 0.05 0"/>
<feBlend mode="normal" in2="BackgroundImageFix" result="effect1_dropShadow"/>
<feBlend mode="normal" in="SourceGraphic" in2="effect1_dropShadow" result="shape"/>
</filter>
</defs>
</svg>
