<svg width="654" height="637" viewBox="0 0 654 637" fill="none" xmlns="http://www.w3.org/2000/svg">
<g filter="url(#filter0_d)">
<path d="M552.365 26.2237C608.195 55.253 646.579 119.891 643.865 181.046C640.763 242.588 596.952 300.647 575.627 366.447C554.691 432.246 556.63 506.174 522.899 555.717C489.168 605.648 419.767 631.58 359.284 618.807C299.189 605.648 248.786 553.395 189.466 511.98C130.146 470.565 62.2966 439.213 30.892 386.186C-0.51272 333.16 4.52756 257.684 39.0339 204.657C73.5403 151.243 137.513 120.278 194.506 91.6363C251.112 62.607 300.352 36.2872 361.998 20.0308C423.257 3.38737 496.534 -2.80554 552.365 26.2237Z" fill="url(#paint0_linear)"/>
</g>
<defs>
<filter id="filter0_d" x="0" y="0" width="654" height="636.038" filterUnits="userSpaceOnUse" color-interpolation-filters="sRGB">
<feFlood flood-opacity="0" result="BackgroundImageFix"/>
<feColorMatrix in="SourceAlpha" type="matrix" values="0 0 0 0 0 0 0 0 0 0 0 0 0 0 0 0 0 0 127 0"/>
<feOffset dy="4"/>
<feGaussianBlur stdDeviation="5"/>
<feColorMatrix type="matrix" values="0 0 0 0 0 0 0 0 0 0 0 0 0 0 0 0 0 0 0.05 0"/>
<feBlend mode="normal" in2="BackgroundImageFix" result="effect1_dropShadow"/>
<feBlend mode="normal" in="SourceGraphic" in2="effect1_dropShadow" result="shape"/>
</filter>
<linearGradient id="paint0_linear" x1="327" y1="6" x2="327" y2="622.038" gradientUnits="userSpaceOnUse">
<stop stop-color="#26C6CA"/>
<stop offset="1" stop-color="#26CA7B"/>
</linearGradient>
</defs>
</svg>
