<svg xmlns="http://www.w3.org/2000/svg" width="70" height="71" fill="none" viewBox="0 0 70 71"><path fill="#38346F" fill-rule="evenodd" d="M67.3 0.677734H18.7C17.215 0.677734 16 1.69023 16 2.92773V34.4277C16 35.6652 17.215 36.6777 18.7 36.6777H67.3C68.785 36.6777 70 35.6652 70 34.4277V2.92773C70 1.69023 68.785 0.677734 67.3 0.677734Z" clip-rule="evenodd"/><g filter="url(#filter0_d)"><path fill="#6466EB" d="M28.1485 56.1738C23.998 56.1738 19.8476 56.1887 15.6986 56.1604C14.9104 56.1544 14.0968 56.0694 13.3415 55.8591C10.6897 55.1222 9.24637 51.8465 10.4025 49.354C11.0292 48.0025 12.0761 47.024 13.1799 46.0857C15.1542 44.4091 17.459 43.3292 19.8506 42.4073C20.6627 42.0941 21.4793 41.7883 22.287 41.4616C22.4904 41.3796 22.6803 41.2468 22.8509 41.1066C23.1515 40.859 23.2592 40.5248 23.0872 40.1713C22.8987 39.782 22.6893 39.3942 22.4291 39.0511C21.4554 37.7683 20.5221 36.4601 19.9986 34.9237C18.8769 31.6361 19.0878 28.4305 20.9215 25.4621C22.4874 22.9263 24.8879 21.6703 27.8778 21.6778C30.9065 21.6852 33.4072 22.8308 35.1556 25.3711C36.0096 26.6122 36.4598 28.0158 36.6438 29.5045C37.0626 32.8786 36.1487 35.8694 34.0413 38.5215C33.7243 38.9198 33.4177 39.3315 33.1529 39.7641C32.788 40.3593 32.9361 40.9336 33.5343 41.299C33.9052 41.5243 34.3031 41.7062 34.6935 41.9002C37.2106 43.1546 39.7473 44.3703 42.2375 45.674C43.9082 46.5482 45.0464 47.9921 45.7837 49.6836C46.5121 51.3587 46.0096 52.922 44.9566 54.3286C44.0413 55.5503 42.773 56.1261 41.2728 56.1335C36.898 56.1544 32.5233 56.141 28.15 56.141C28.1485 56.1529 28.1485 56.1634 28.1485 56.1738Z"/></g><rect width="13" height="9" x="37" y="12.678" fill="url(#paint0_linear)"/><rect width="7" height="3" x="40" y="11.678" fill="#fff"/><rect width="13" height="9" x="53" y="3.678" fill="url(#paint1_linear)"/><rect width="7" height="3" x="56" y="2.678" fill="#fff"/><rect width="13" height="9" x="53" y="22.678" fill="url(#paint2_linear)"/><rect width="7" height="3" x="56" y="21.678" fill="#fff"/><defs><filter id="filter0_d" width="56.127" height="54.5" x="0" y="15.678" color-interpolation-filters="sRGB" filterUnits="userSpaceOnUse"><feFlood flood-opacity="0" result="BackgroundImageFix"/><feColorMatrix in="SourceAlpha" type="matrix" values="0 0 0 0 0 0 0 0 0 0 0 0 0 0 0 0 0 0 127 0"/><feOffset dy="4"/><feGaussianBlur stdDeviation="5"/><feColorMatrix type="matrix" values="0 0 0 0 0 0 0 0 0 0 0 0 0 0 0 0 0 0 0.05 0"/><feBlend in2="BackgroundImageFix" mode="normal" result="effect1_dropShadow"/><feBlend in="SourceGraphic" in2="effect1_dropShadow" mode="normal" result="shape"/></filter><linearGradient id="paint0_linear" x1="38.647" x2="45.234" y1="13.758" y2="23.673" gradientUnits="userSpaceOnUse"><stop stop-color="#F5D114"/><stop offset="1" stop-color="#D0990D"/></linearGradient><linearGradient id="paint1_linear" x1="54.647" x2="61.234" y1="4.758" y2="14.673" gradientUnits="userSpaceOnUse"><stop stop-color="#F5D114"/><stop offset="1" stop-color="#D0990D"/></linearGradient><linearGradient id="paint2_linear" x1="54.647" x2="61.234" y1="23.758" y2="33.673" gradientUnits="userSpaceOnUse"><stop stop-color="#F5D114"/><stop offset="1" stop-color="#D0990D"/></linearGradient></defs></svg>